<svg width="512" height="512" viewBox="0 0 512 512" fill="none" xmlns="http://www.w3.org/2000/svg">
<path d="M256 0C115.391 0 0 115.391 0 256C0 396.609 115.391 512 256 512C300.797 512 344.902 500.164 383.527 477.766L368.469 451.809C334.414 471.555 295.52 482 256 482C131.93 482 30 380.07 30 256C30 131.93 131.93 30 256 30C380.07 30 482 131.93 482 256C482 295.902 471.559 334.867 452 368.719V332H422V422H512V392H472.977C498.172 351.672 512 303.777 512 256C512 115.391 396.609 0 256 0Z" fill="#A9A9A9"/>
<path d="M256 90C165.02 90 90 165.02 90 256C90 346.98 165.02 422 256 422C346.98 422 422 346.98 422 256C422 165.02 346.98 90 256 90ZM361 271H241V150H271V241H361V271Z" fill="#A9A9A9"/>
</svg>
