<svg width="69" height="51" viewBox="0 0 69 51" fill="none" xmlns="http://www.w3.org/2000/svg">
<path fill-rule="evenodd" clip-rule="evenodd" d="M46.4177 0.590044C46.2021 0.645456 45.8798 0.7321 45.7015 0.782475C45.4126 0.854857 45.1129 0.873975 44.8172 0.838894C44.4858 0.808452 44.1517 0.827809 43.8261 0.896322C43.4703 0.959503 43.1096 0.99086 42.7483 0.990018C42.4564 0.967242 42.1629 0.999712 41.8831 1.08573C41.6685 1.16356 41.4474 1.22222 41.2224 1.26103C40.9786 1.30536 40.6603 1.36178 40.5173 1.39503C40.3743 1.42828 39.8807 1.46757 39.4265 1.48973C38.4424 1.53809 38.244 1.58142 37.9892 1.80911C37.9109 1.88178 37.8183 1.93725 37.7174 1.97195C37.6164 2.00666 37.5093 2.01983 37.4029 2.01061C36.8959 2.06554 36.403 2.21125 35.9475 2.44081C35.2866 2.67461 34.595 2.81038 33.8948 2.8438C33.3589 2.88209 33.2904 2.90022 33.0598 3.07754C32.8891 3.21421 32.6813 3.29636 32.4635 3.3133C32.1701 3.32465 31.8908 3.44248 31.6778 3.64476C31.4814 3.78547 31.2476 3.86439 31.006 3.87145C30.7366 3.89902 30.4754 3.97984 30.2375 4.10921C29.9718 4.24683 29.696 4.36403 29.4126 4.45982C29.1175 4.5284 28.8487 4.68137 28.639 4.9001C28.4409 5.12014 28.168 5.25872 27.8735 5.28899C27.752 5.33293 27.6367 5.39289 27.5311 5.46731C27.3245 5.59187 27.109 5.70098 26.8864 5.79374C26.6786 5.8794 26.4814 5.9893 26.2992 6.12118C26.153 6.2345 25.9949 6.33178 25.8278 6.41134C25.6395 6.50979 25.4676 6.6369 25.3182 6.78814C25.1957 6.9212 25.0444 7.02457 24.876 7.09039C24.6264 7.14159 24.3968 7.26326 24.2143 7.44099C24.1127 7.54677 23.9908 7.63075 23.8557 7.68783C23.6658 7.78665 23.4953 7.91871 23.3521 8.07773C23.2335 8.21904 23.0901 8.33751 22.929 8.42733C22.734 8.53937 22.5516 8.67212 22.3851 8.82327C21.809 9.34616 21.6227 9.50736 21.388 9.68468C20.9284 10.0518 20.5151 10.4732 20.1571 10.94C19.9638 11.215 19.7543 11.478 19.5296 11.7279C19.3155 11.9623 19.1201 12.2133 18.9454 12.4785C18.8535 12.635 18.7399 12.7778 18.608 12.9026C18.4784 13.028 18.3755 13.1785 18.3058 13.3449C18.2481 13.4982 18.171 13.6435 18.0762 13.7771C17.9532 13.9717 17.8519 14.1791 17.774 14.3957C17.6747 14.6529 17.5495 14.8994 17.4003 15.1312C17.2809 15.3041 17.1857 15.4926 17.1173 15.6914C17.081 15.8253 17.0166 16.043 16.9692 16.1739C16.8843 16.6444 16.8565 17.1234 16.8866 17.6005C16.8866 19.137 16.9874 19.5964 17.4185 20.1515C17.5316 20.3004 17.6326 20.4581 17.7206 20.623C17.9868 21.0637 18.3277 21.4547 18.7279 21.7786C18.8748 21.8693 19.0128 21.9739 19.1398 22.0909L19.6908 22.5897C19.8835 22.7586 20.1026 22.8948 20.3394 22.9927C20.5887 23.0957 20.8275 23.2226 21.0526 23.3715C21.2715 23.5176 21.5043 23.6418 21.7475 23.7422C21.9707 23.8319 22.1847 23.9432 22.3861 24.0747C22.6391 24.2271 22.9097 24.3482 23.1919 24.4354C23.4467 24.511 23.6944 24.6088 23.9322 24.7276C24.1959 24.8462 24.4729 24.9332 24.7572 24.9865C25.1006 25.0569 25.4353 25.1647 25.7553 25.3079C26.0171 25.4292 26.2923 25.5191 26.5752 25.5759C26.903 25.5989 27.2184 25.7096 27.4888 25.8962C27.6797 26.0032 27.8898 26.0717 28.1072 26.0977C28.3338 26.133 28.7055 26.2126 28.9321 26.2751C29.2215 26.3492 29.5147 26.4077 29.8104 26.4504C29.9912 26.4668 30.1694 26.5047 30.3412 26.5632C30.715 26.7324 31.1156 26.8347 31.5247 26.8655C32.0117 26.8842 32.4861 27.0259 32.9036 27.2775C33.0173 27.3628 33.1477 27.4229 33.2864 27.4538C33.467 27.4706 33.6463 27.4988 33.8232 27.5385C34.0499 27.5848 34.4276 27.6523 34.6653 27.6866C34.908 27.7231 35.1449 27.7909 35.3704 27.8881C35.905 28.1255 36.487 28.2372 37.0716 28.2145C37.2545 28.2473 37.425 28.3291 37.5651 28.4512C37.7384 28.5982 37.9503 28.6923 38.1755 28.7223C38.5629 28.7915 38.9322 28.9386 39.2613 29.1545C39.4708 29.2673 39.6916 29.3579 39.92 29.4245C40.1615 29.4959 40.3929 29.5975 40.609 29.7267C40.6847 29.7916 40.7727 29.8407 40.8678 29.8708C41.2428 30.1647 41.5828 30.5007 41.8811 30.8722C41.9734 31.1257 41.9939 31.3999 41.9406 31.6643C41.8873 31.9288 41.7621 32.1734 41.5789 32.3714C41.5057 32.4412 41.4605 32.5355 41.452 32.6364C41.4507 32.9338 41.3362 33.2195 41.1317 33.4353C41.0164 33.5447 40.915 33.6679 40.8295 33.802C40.7511 33.9234 40.6447 34.0243 40.5193 34.0962C40.3791 34.1765 40.2492 34.2735 40.1325 34.3854C39.9639 34.5259 39.7691 34.6318 39.5594 34.6967C39.3544 34.7567 39.1645 34.8598 39.0024 34.9989C38.8398 35.1432 38.6439 35.245 38.4323 35.2951C38.2203 35.3562 38.0201 35.4525 37.8401 35.5803C37.6183 35.7865 37.3397 35.9213 37.0403 35.9671C36.8266 36.0229 36.6228 36.1112 36.436 36.2291C36.2524 36.3473 36.0468 36.4275 35.8317 36.4648C35.0259 36.619 34.7559 36.7107 34.5464 36.9091C34.3953 37.0385 34.2215 37.1386 34.0338 37.2043C33.9455 37.2234 33.8619 37.26 33.7881 37.3118C33.7142 37.3638 33.6515 37.43 33.6037 37.5066C33.4724 37.6872 33.2822 37.8162 33.0658 37.8713C32.7787 37.9862 32.6347 38.0778 32.5974 38.1736C32.4837 38.3902 32.3576 38.6001 32.2197 38.8022C32.0952 38.9767 31.9864 39.1618 31.8944 39.3553C31.8107 39.6585 31.663 39.9403 31.4613 40.1815C31.334 40.3364 31.2248 40.5055 31.136 40.6852C31.0677 40.8334 30.9667 40.9643 30.8408 41.0681C30.7401 41.1406 30.6565 41.2363 30.6565 41.2817C30.5851 41.6212 30.4423 41.9417 30.2375 42.2217C30.0804 42.4498 29.9613 42.7019 29.885 42.9682C29.8149 43.2067 29.7132 43.4347 29.5828 43.6462L29.465 43.7732L29.7671 43.8739C30.1388 43.9707 30.526 43.9929 30.9063 43.9394C31.3666 43.9203 32.2872 43.884 32.952 43.8588C33.4304 43.8931 33.9111 43.8429 34.3722 43.7107C34.6567 43.6114 34.9553 43.5584 35.2565 43.5536C35.6383 43.5233 36.1489 43.4709 36.3927 43.4367C36.6364 43.4024 37.3798 43.3551 38.0466 43.3299C39.2552 43.2856 39.2552 43.2856 39.6168 43.0982C40.1412 42.8624 40.7046 42.7258 41.2788 42.6952C41.4871 42.6768 41.6938 42.6431 41.8972 42.5944C42.0779 42.5493 42.2612 42.5156 42.4462 42.4937C42.667 42.4611 42.8828 42.3999 43.0878 42.3113C43.5231 42.1613 43.9768 42.0714 44.4364 42.0443C45.4024 41.9234 45.5384 41.8922 45.7851 41.736C45.9554 41.6327 46.1426 41.56 46.3381 41.5214C46.7758 41.4386 47.2041 41.3117 47.6163 41.1426C47.9932 40.9595 48.3945 40.8315 48.8078 40.7628C49.1315 40.7047 49.444 40.5956 49.7335 40.4394C50.0881 40.2347 50.4876 40.1198 50.8968 40.1049C51.2101 40.0707 51.479 39.9205 51.479 39.7795C51.479 39.709 51.764 39.5619 52.172 39.4218C52.3578 39.356 52.532 39.2607 52.6877 39.1397C52.9624 38.9415 53.2791 38.8094 53.6133 38.7539C53.7244 38.7212 53.8258 38.6617 53.9084 38.5806C54.0774 38.4417 54.2608 38.3216 54.4554 38.2219C54.6618 38.1153 54.8539 37.9833 55.0275 37.829C55.1544 37.7079 55.3012 37.6098 55.4616 37.5388C55.6085 37.4774 55.7413 37.3869 55.8524 37.2729C55.9511 37.1649 56.0681 37.0752 56.1979 37.0079C56.3348 36.9348 56.4562 36.836 56.5555 36.7167C56.6899 36.566 56.844 36.4342 57.0137 36.3248C57.4057 36.0446 57.7676 35.7245 58.0935 35.3697L58.5276 34.9274C58.7011 34.7492 58.8551 34.5529 58.9869 34.3421C59.0738 34.1902 59.1855 34.054 59.3173 33.9391C59.4501 33.8173 59.5576 33.6704 59.6335 33.5068C59.689 33.3425 59.806 33.206 59.9599 33.126C60.0999 33.0676 60.1563 32.995 60.2047 32.8076C60.2932 32.4428 60.4315 32.092 60.6156 31.7649C60.7216 31.577 60.8057 31.3775 60.8664 31.1705C60.9752 30.8219 61.0386 30.7131 61.1877 30.6184C61.4284 30.4662 61.4274 30.4682 61.5261 29.5625C61.5501 29.1462 61.6403 28.7365 61.7931 28.3485C62.0388 27.7561 62.0952 27.209 61.919 27.1153C61.7427 27.0216 61.6168 26.7375 61.5523 26.2922C61.4707 25.6877 61.3801 25.4147 61.227 25.3139C61.0264 25.1284 60.886 24.8869 60.8241 24.6208C60.5017 24.0591 60.0669 23.57 59.5469 23.1841C59.3596 23.0692 59.1899 22.9277 59.0433 22.7639C58.9478 22.6436 58.8272 22.5455 58.6898 22.4768C58.5621 22.4163 58.4498 22.3273 58.3614 22.2169C58.2686 22.0979 58.1384 22.0137 57.9918 21.9781C57.6765 21.936 57.3801 21.8034 57.1386 21.5963C57.0258 21.4919 56.8933 21.411 56.7488 21.3585C56.451 21.2844 56.1776 21.1337 55.9561 20.9212C55.8808 20.8281 55.7867 20.7518 55.68 20.6973C55.5733 20.6428 55.4564 20.6113 55.3367 20.6049C55.0364 20.5811 54.7476 20.4794 54.4987 20.3097C54.2869 20.1819 54.0503 20.1009 53.8047 20.0719C53.3812 20.0217 52.9765 19.868 52.6262 19.6246C52.5175 19.5239 52.3341 19.4725 51.3471 19.272C51.1503 19.2331 50.9643 19.1527 50.8011 19.0362C50.6355 18.9069 50.433 18.8338 50.223 18.8277C49.5508 18.7658 48.8894 18.6165 48.2559 18.3834C47.963 18.2589 47.6563 18.17 47.3423 18.1184C46.9315 18.1003 46.5324 17.9748 46.185 17.7547C45.9221 17.5532 45.7388 17.5109 44.8464 17.4101C44.3264 17.3964 43.8146 17.2764 43.3426 17.0575C43.0864 16.9584 42.8192 16.8908 42.5469 16.856C42.0972 16.829 41.6665 16.6656 41.312 16.3875C41.1971 16.3236 41.0709 16.2821 40.9403 16.2656C40.4662 16.1865 40.0065 16.0371 39.5766 15.8223C39.3722 15.7103 39.1551 15.6233 38.9299 15.5634C38.6201 15.5173 38.334 15.3704 38.1161 15.1453C38.0195 15.055 37.9048 14.9863 37.7796 14.9438C37.6919 14.9173 37.6107 14.8727 37.5413 14.8128C37.4719 14.7529 37.4158 14.6791 37.3768 14.5962C37.2869 14.4254 37.1406 14.2912 36.9628 14.2164C36.8066 14.1515 36.6748 14.039 36.5861 13.895C36.5257 13.7809 36.4456 13.6787 36.3494 13.5927C36.1358 13.1957 36.0251 12.7516 36.027 12.3007C36.029 11.8499 36.1436 11.4068 36.3605 11.0115C36.4872 10.8469 36.5844 10.6614 36.6475 10.4635C36.7001 10.2678 36.8044 10.0899 36.9497 9.94864C37.1063 9.77993 37.2357 9.58789 37.3334 9.37941C37.4126 9.19302 37.5308 9.02574 37.6799 8.88876C37.7908 8.8113 37.8851 8.71228 37.9569 8.59759C38.033 8.47833 38.1458 8.38708 38.2782 8.33766C38.3642 8.30725 38.4424 8.25773 38.5066 8.19281C38.5707 8.1279 38.6194 8.04929 38.6489 7.96287C38.7165 7.79948 38.8366 7.66333 38.9903 7.576C39.1118 7.50884 39.2155 7.41348 39.2925 7.29793C39.3762 7.17765 39.4879 7.07947 39.6178 7.0118C39.8012 6.90796 39.9751 6.78828 40.1376 6.65414C40.3071 6.51557 40.4948 6.40099 40.6956 6.31361C40.8597 6.24787 41.0097 6.15144 41.1378 6.0295C41.3204 5.86843 41.5379 5.75217 41.7733 5.68997C41.9975 5.61921 42.2108 5.51749 42.4069 5.38772C42.5968 5.26126 42.8126 5.17867 43.0384 5.14592C43.8351 4.97969 43.9842 4.92931 44.1252 4.7792C44.3267 4.55956 44.514 4.48299 45.0801 4.38527C45.3257 4.3667 45.5625 4.28554 45.768 4.14951C46.0148 3.94197 46.5637 3.83719 48.1521 3.69614C48.5544 3.6807 48.952 3.60322 49.3306 3.46643C50.0652 3.22371 50.8368 3.11286 51.6099 3.139C52.2687 3.09366 53.0332 3.03019 53.3081 2.99795C55.8618 2.7212 58.434 2.65718 60.9983 2.80653C61.4194 2.84884 62.2292 2.90728 62.7963 2.93246C63.3633 2.95765 63.9868 3.01206 64.1812 3.04933C64.3756 3.08661 65.0786 3.13799 65.7434 3.16419C67.1294 3.21859 67.2754 3.25486 67.2754 3.543C67.2754 4.02257 68.0862 4.14145 68.47 3.71831C68.6402 3.53091 68.054 3.23068 67.5192 3.23068C67.4376 3.23068 67.3842 3.18232 67.36 3.08459C67.3207 2.92944 67.3328 2.93347 66.5391 2.81459C66.0668 2.76227 65.6061 2.6333 65.1753 2.43275C65.0429 2.35833 64.8984 2.30818 64.7483 2.28465C64.2055 2.23097 63.6754 2.08693 63.18 1.85848C62.5524 1.59486 61.8785 1.45954 61.1978 1.46052C60.9525 1.45118 60.7085 1.4205 60.4685 1.36883C60.2419 1.31846 59.8944 1.256 59.697 1.22879C59.5274 1.20966 59.3609 1.16904 59.2014 1.10789C58.9636 1.03887 58.7186 0.997952 58.4712 0.985988C58.1439 0.958786 57.6231 0.909419 57.3159 0.875164C57.0087 0.840909 56.4718 0.813707 56.1244 0.813707C55.8272 0.822548 55.5301 0.794116 55.24 0.729078C54.6357 0.527579 54.3234 0.513474 50.5715 0.501384C49.1869 0.411743 47.7972 0.441405 46.4177 0.590044ZM2.032 39.8248C2.032 40.1996 2.92138 40.6469 3.92862 40.7809C4.6932 40.8655 5.44886 41.0171 6.18683 41.2343C6.61595 41.3601 7.05353 41.4552 7.49623 41.5184C7.76447 41.5442 8.02959 41.5959 8.28791 41.6726C8.43573 41.7355 8.58918 41.7845 8.7462 41.8187L9.07355 41.8942L9.4281 41.5597C9.73034 41.3213 9.97193 41.0147 10.1332 40.6651C10.2216 40.4901 10.3226 40.3217 10.4353 40.1613L10.5743 39.979L10.1473 39.8853C9.36102 39.7821 8.56799 39.7397 7.77523 39.7583C6.70555 39.7402 4.97513 39.708 3.92962 39.6868L2.02898 39.6475V39.8299" fill="#962932"/>
<path d="M2.032 39.8248C2.032 40.1996 2.92138 40.6469 3.92862 40.7809C4.6932 40.8655 5.44886 41.0171 6.18683 41.2343C6.61595 41.3601 7.05353 41.4552 7.49623 41.5184C7.76447 41.5442 8.02959 41.5959 8.28791 41.6726C8.43573 41.7355 8.58918 41.7845 8.7462 41.8187L9.07355 41.8942L9.4281 41.5597C9.73034 41.3213 9.97193 41.0147 10.1332 40.6651C10.2216 40.4901 10.3226 40.3217 10.4353 40.1613L10.5743 39.979L10.1473 39.8853C9.36102 39.7821 8.56799 39.7397 7.77523 39.7583C6.70555 39.7402 4.97513 39.708 3.92962 39.6868L2.02898 39.6475V39.8299L2.032 39.8248ZM46.4177 0.590044C46.2021 0.645456 45.8798 0.7321 45.7015 0.782475C45.4126 0.854857 45.1129 0.873975 44.8172 0.838894C44.4858 0.808452 44.1517 0.827809 43.8261 0.896322C43.4703 0.959503 43.1096 0.99086 42.7483 0.990018C42.4564 0.967242 42.1629 0.999712 41.8831 1.08573C41.6685 1.16356 41.4474 1.22222 41.2224 1.26103C40.9786 1.30536 40.6603 1.36178 40.5173 1.39503C40.3743 1.42828 39.8807 1.46757 39.4265 1.48973C38.4424 1.53809 38.244 1.58142 37.9892 1.80911C37.9109 1.88178 37.8183 1.93725 37.7174 1.97195C37.6164 2.00666 37.5093 2.01983 37.4029 2.01061C36.8959 2.06554 36.403 2.21125 35.9475 2.44081C35.2866 2.67461 34.595 2.81038 33.8948 2.8438C33.3589 2.88209 33.2904 2.90022 33.0598 3.07754C32.8891 3.21421 32.6813 3.29636 32.4635 3.3133C32.1701 3.32465 31.8908 3.44248 31.6778 3.64476C31.4814 3.78547 31.2476 3.86439 31.006 3.87145C30.7366 3.89902 30.4754 3.97984 30.2375 4.10921C29.9718 4.24683 29.696 4.36403 29.4126 4.45982C29.1175 4.5284 28.8487 4.68137 28.639 4.9001C28.4409 5.12014 28.168 5.25872 27.8735 5.28899C27.752 5.33293 27.6367 5.39289 27.5311 5.46731C27.3245 5.59187 27.109 5.70098 26.8864 5.79374C26.6786 5.8794 26.4814 5.9893 26.2992 6.12118C26.153 6.2345 25.9949 6.33178 25.8278 6.41134C25.6395 6.50979 25.4676 6.6369 25.3182 6.78814C25.1957 6.9212 25.0444 7.02457 24.876 7.09039C24.6264 7.14159 24.3968 7.26326 24.2143 7.44099C24.1127 7.54677 23.9908 7.63075 23.8557 7.68783C23.6658 7.78665 23.4953 7.91871 23.3521 8.07773C23.2335 8.21904 23.0901 8.33751 22.929 8.42733C22.734 8.53937 22.5516 8.67212 22.3851 8.82327C21.809 9.34616 21.6227 9.50736 21.388 9.68468C20.9284 10.0518 20.5151 10.4732 20.1571 10.94C19.9638 11.215 19.7543 11.478 19.5296 11.7279C19.3155 11.9623 19.1201 12.2133 18.9454 12.4785C18.8535 12.635 18.7399 12.7778 18.608 12.9026C18.4784 13.028 18.3755 13.1785 18.3058 13.3449C18.2481 13.4982 18.171 13.6435 18.0762 13.7771C17.9532 13.9717 17.8519 14.1791 17.774 14.3957C17.6747 14.6529 17.5495 14.8994 17.4003 15.1312C17.2809 15.3041 17.1857 15.4926 17.1173 15.6914C17.081 15.8253 17.0166 16.043 16.9692 16.1739C16.8843 16.6444 16.8565 17.1234 16.8866 17.6005C16.8866 19.137 16.9874 19.5964 17.4185 20.1515C17.5316 20.3004 17.6326 20.4581 17.7206 20.623C17.9868 21.0637 18.3277 21.4547 18.7279 21.7786C18.8748 21.8693 19.0128 21.9739 19.1398 22.0909L19.6908 22.5897C19.8835 22.7586 20.1026 22.8948 20.3394 22.9927C20.5887 23.0957 20.8275 23.2226 21.0526 23.3715C21.2715 23.5176 21.5043 23.6418 21.7475 23.7422C21.9707 23.8319 22.1847 23.9432 22.3861 24.0747C22.6391 24.2271 22.9097 24.3482 23.1919 24.4354C23.4467 24.511 23.6944 24.6088 23.9322 24.7276C24.1959 24.8462 24.4729 24.9332 24.7572 24.9865C25.1006 25.0569 25.4353 25.1647 25.7553 25.3079C26.0171 25.4292 26.2923 25.5191 26.5752 25.5759C26.903 25.5989 27.2184 25.7096 27.4888 25.8962C27.6797 26.0032 27.8898 26.0717 28.1072 26.0977C28.3338 26.133 28.7055 26.2126 28.9321 26.2751C29.2215 26.3492 29.5147 26.4077 29.8104 26.4504C29.9912 26.4668 30.1694 26.5047 30.3412 26.5632C30.715 26.7324 31.1156 26.8347 31.5247 26.8655C32.0117 26.8842 32.4861 27.0259 32.9036 27.2775C33.0173 27.3628 33.1477 27.4229 33.2864 27.4538C33.467 27.4706 33.6463 27.4988 33.8232 27.5385C34.0499 27.5848 34.4276 27.6523 34.6653 27.6866C34.908 27.7231 35.1449 27.7909 35.3704 27.8881C35.905 28.1255 36.487 28.2372 37.0716 28.2145C37.2545 28.2473 37.425 28.3291 37.5651 28.4512C37.7384 28.5982 37.9503 28.6923 38.1755 28.7223C38.5629 28.7915 38.9322 28.9386 39.2613 29.1545C39.4708 29.2673 39.6916 29.3579 39.92 29.4245C40.1615 29.4959 40.3929 29.5975 40.609 29.7267C40.6847 29.7916 40.7727 29.8407 40.8678 29.8708C41.2428 30.1647 41.5828 30.5007 41.8811 30.8722C41.9734 31.1257 41.9939 31.3999 41.9406 31.6643C41.8873 31.9288 41.7621 32.1734 41.5789 32.3714C41.5057 32.4412 41.4605 32.5355 41.452 32.6364C41.4507 32.9338 41.3362 33.2195 41.1317 33.4353C41.0164 33.5447 40.915 33.6679 40.8295 33.802C40.7511 33.9234 40.6447 34.0243 40.5193 34.0962C40.3791 34.1765 40.2492 34.2735 40.1325 34.3854C39.9639 34.5259 39.7691 34.6318 39.5594 34.6967C39.3544 34.7567 39.1645 34.8598 39.0024 34.9989C38.8398 35.1432 38.6439 35.245 38.4323 35.2951C38.2203 35.3562 38.0201 35.4525 37.8401 35.5803C37.6183 35.7865 37.3397 35.9213 37.0403 35.9671C36.8266 36.0229 36.6228 36.1112 36.436 36.2291C36.2524 36.3473 36.0468 36.4275 35.8317 36.4648C35.0259 36.619 34.7559 36.7107 34.5464 36.9091C34.3953 37.0385 34.2215 37.1386 34.0338 37.2043C33.9455 37.2234 33.8619 37.26 33.7881 37.3118C33.7142 37.3638 33.6515 37.43 33.6037 37.5066C33.4724 37.6872 33.2822 37.8162 33.0658 37.8713C32.7787 37.9862 32.6347 38.0778 32.5974 38.1736C32.4837 38.3902 32.3576 38.6001 32.2197 38.8022C32.0952 38.9767 31.9864 39.1618 31.8944 39.3553C31.8107 39.6585 31.663 39.9403 31.4613 40.1815C31.334 40.3364 31.2248 40.5055 31.136 40.6852C31.0677 40.8334 30.9667 40.9643 30.8408 41.0681C30.7401 41.1406 30.6565 41.2363 30.6565 41.2817C30.5851 41.6212 30.4423 41.9417 30.2375 42.2217C30.0804 42.4498 29.9613 42.7019 29.885 42.9682C29.8149 43.2067 29.7132 43.4347 29.5828 43.6462L29.465 43.7732L29.7671 43.8739C30.1388 43.9707 30.526 43.9929 30.9063 43.9394C31.3666 43.9203 32.2872 43.884 32.952 43.8588C33.4304 43.8931 33.9111 43.8429 34.3722 43.7107C34.6567 43.6114 34.9553 43.5584 35.2565 43.5536C35.6383 43.5233 36.1489 43.4709 36.3927 43.4367C36.6364 43.4024 37.3798 43.3551 38.0466 43.3299C39.2552 43.2856 39.2552 43.2856 39.6168 43.0982C40.1412 42.8624 40.7046 42.7258 41.2788 42.6952C41.4871 42.6768 41.6938 42.6431 41.8972 42.5944C42.0779 42.5493 42.2612 42.5156 42.4462 42.4937C42.667 42.4611 42.8828 42.3999 43.0878 42.3113C43.5231 42.1613 43.9768 42.0714 44.4364 42.0443C45.4024 41.9234 45.5384 41.8922 45.7851 41.736C45.9554 41.6327 46.1426 41.56 46.3381 41.5214C46.7758 41.4386 47.2041 41.3117 47.6163 41.1426C47.9932 40.9595 48.3945 40.8315 48.8078 40.7628C49.1315 40.7047 49.444 40.5956 49.7335 40.4394C50.0881 40.2347 50.4876 40.1198 50.8968 40.1049C51.2101 40.0707 51.479 39.9205 51.479 39.7795C51.479 39.709 51.764 39.5619 52.172 39.4218C52.3578 39.356 52.532 39.2607 52.6877 39.1397C52.9624 38.9415 53.2791 38.8094 53.6133 38.7539C53.7244 38.7212 53.8258 38.6617 53.9084 38.5806C54.0774 38.4417 54.2608 38.3216 54.4554 38.2219C54.6618 38.1153 54.8539 37.9833 55.0275 37.829C55.1544 37.7079 55.3012 37.6098 55.4616 37.5388C55.6085 37.4774 55.7413 37.3869 55.8524 37.2729C55.9511 37.1649 56.0681 37.0752 56.1979 37.0079C56.3348 36.9348 56.4562 36.836 56.5555 36.7167C56.6899 36.566 56.844 36.4342 57.0137 36.3248C57.4057 36.0446 57.7676 35.7245 58.0935 35.3697L58.5276 34.9274C58.7011 34.7492 58.8551 34.5529 58.9869 34.3421C59.0738 34.1902 59.1855 34.054 59.3173 33.9391C59.4501 33.8173 59.5576 33.6704 59.6335 33.5068C59.689 33.3425 59.806 33.206 59.9599 33.126C60.0999 33.0676 60.1563 32.995 60.2047 32.8076C60.2932 32.4428 60.4315 32.092 60.6156 31.7649C60.7216 31.577 60.8057 31.3775 60.8664 31.1705C60.9752 30.8219 61.0386 30.7131 61.1877 30.6184C61.4284 30.4662 61.4274 30.4682 61.5261 29.5625C61.5501 29.1462 61.6403 28.7365 61.7931 28.3485C62.0388 27.7561 62.0952 27.209 61.919 27.1153C61.7427 27.0216 61.6168 26.7375 61.5523 26.2922C61.4707 25.6877 61.3801 25.4147 61.227 25.3139C61.0264 25.1284 60.886 24.8869 60.8241 24.6208C60.5017 24.0591 60.0669 23.57 59.5469 23.1841C59.3596 23.0692 59.1899 22.9277 59.0433 22.7639C58.9478 22.6436 58.8272 22.5455 58.6898 22.4768C58.5621 22.4163 58.4498 22.3273 58.3614 22.2169C58.2686 22.0979 58.1384 22.0137 57.9918 21.9781C57.6765 21.936 57.3801 21.8034 57.1386 21.5963C57.0258 21.4919 56.8933 21.411 56.7488 21.3585C56.451 21.2844 56.1776 21.1337 55.9561 20.9212C55.8808 20.8281 55.7867 20.7518 55.68 20.6973C55.5733 20.6428 55.4564 20.6113 55.3367 20.6049C55.0364 20.5811 54.7476 20.4794 54.4987 20.3097C54.2869 20.1819 54.0503 20.1009 53.8047 20.0719C53.3812 20.0217 52.9765 19.868 52.6262 19.6246C52.5175 19.5239 52.3341 19.4725 51.3471 19.272C51.1503 19.2331 50.9643 19.1527 50.8011 19.0362C50.6355 18.9069 50.433 18.8338 50.223 18.8277C49.5508 18.7658 48.8894 18.6165 48.2559 18.3834C47.963 18.2589 47.6563 18.17 47.3423 18.1184C46.9315 18.1003 46.5324 17.9748 46.185 17.7547C45.9221 17.5532 45.7388 17.5109 44.8464 17.4101C44.3264 17.3964 43.8146 17.2764 43.3426 17.0575C43.0864 16.9584 42.8192 16.8908 42.5469 16.856C42.0972 16.829 41.6665 16.6656 41.312 16.3875C41.1971 16.3236 41.0709 16.2821 40.9403 16.2656C40.4662 16.1865 40.0065 16.0371 39.5766 15.8223C39.3722 15.7103 39.1551 15.6233 38.9299 15.5634C38.6201 15.5173 38.334 15.3704 38.1161 15.1453C38.0195 15.055 37.9048 14.9863 37.7796 14.9438C37.6919 14.9173 37.6107 14.8727 37.5413 14.8128C37.4719 14.7529 37.4158 14.6791 37.3768 14.5962C37.2869 14.4254 37.1406 14.2912 36.9628 14.2164C36.8066 14.1515 36.6748 14.039 36.5861 13.895C36.5257 13.7809 36.4456 13.6787 36.3494 13.5927C36.1358 13.1957 36.0251 12.7516 36.027 12.3007C36.029 11.8499 36.1436 11.4068 36.3605 11.0115C36.4872 10.8469 36.5844 10.6614 36.6475 10.4635C36.7001 10.2678 36.8044 10.0899 36.9497 9.94864C37.1063 9.77993 37.2357 9.58789 37.3334 9.37941C37.4126 9.19302 37.5308 9.02574 37.6799 8.88876C37.7908 8.8113 37.8851 8.71228 37.9569 8.59759C38.033 8.47833 38.1458 8.38708 38.2782 8.33766C38.3642 8.30725 38.4424 8.25773 38.5066 8.19281C38.5707 8.1279 38.6194 8.04929 38.6489 7.96287C38.7165 7.79948 38.8366 7.66333 38.9903 7.576C39.1118 7.50884 39.2155 7.41348 39.2925 7.29793C39.3762 7.17765 39.4879 7.07947 39.6178 7.0118C39.8012 6.90796 39.9751 6.78828 40.1376 6.65414C40.3071 6.51557 40.4948 6.40099 40.6956 6.31361C40.8597 6.24787 41.0097 6.15144 41.1378 6.0295C41.3204 5.86843 41.5379 5.75217 41.7733 5.68997C41.9975 5.61921 42.2108 5.51749 42.4069 5.38772C42.5968 5.26126 42.8126 5.17867 43.0384 5.14592C43.8351 4.97969 43.9842 4.92931 44.1252 4.7792C44.3267 4.55956 44.514 4.48299 45.0801 4.38527C45.3257 4.3667 45.5625 4.28554 45.768 4.14951C46.0148 3.94197 46.5637 3.83719 48.1521 3.69614C48.5544 3.6807 48.952 3.60322 49.3306 3.46643C50.0652 3.22371 50.8368 3.11286 51.6099 3.139C52.2687 3.09366 53.0332 3.03019 53.3081 2.99795C55.8618 2.7212 58.434 2.65718 60.9983 2.80653C61.4194 2.84884 62.2292 2.90728 62.7963 2.93246C63.3633 2.95765 63.9868 3.01206 64.1812 3.04933C64.3756 3.08661 65.0786 3.13799 65.7434 3.16419C67.1294 3.21859 67.2754 3.25486 67.2754 3.543C67.2754 4.02257 68.0862 4.14145 68.47 3.71831C68.6402 3.53091 68.054 3.23068 67.5192 3.23068C67.4376 3.23068 67.3842 3.18232 67.36 3.08459C67.3207 2.92944 67.3328 2.93347 66.5391 2.81459C66.0668 2.76227 65.6061 2.6333 65.1753 2.43275C65.0429 2.35833 64.8984 2.30818 64.7483 2.28465C64.2055 2.23097 63.6754 2.08693 63.18 1.85848C62.5524 1.59486 61.8785 1.45954 61.1978 1.46052C60.9525 1.45118 60.7085 1.4205 60.4685 1.36883C60.2419 1.31846 59.8944 1.256 59.697 1.22879C59.5274 1.20966 59.3609 1.16904 59.2014 1.10789C58.9636 1.03887 58.7186 0.997952 58.4712 0.985988C58.1439 0.958786 57.6231 0.909419 57.3159 0.875164C57.0087 0.840909 56.4718 0.813707 56.1244 0.813707C55.8272 0.822548 55.5301 0.794116 55.24 0.729078C54.6357 0.527579 54.3234 0.513474 50.5715 0.501384C49.1869 0.411743 47.7972 0.441405 46.4177 0.590044Z" stroke="#962932"/>
<path fill-rule="evenodd" clip-rule="evenodd" d="M67.0669 3.79488C66.8172 3.90547 66.5621 4.00331 66.3024 4.08806C65.9781 4.19687 65.5631 4.33792 65.3808 4.4024C65.0742 4.49447 64.7615 4.56516 64.4451 4.61397C64.0165 4.64516 63.6063 4.8006 63.2646 5.0613C63.0343 5.18173 62.7848 5.26148 62.5273 5.29705C62.1824 5.36344 61.8465 5.471 61.5272 5.61744C61.1977 5.76956 60.8495 5.87729 60.4917 5.93782C60.0932 5.96506 59.7075 6.08996 59.3687 6.30152C59.1274 6.42112 58.8723 6.51046 58.6092 6.5675C58.3114 6.62645 58.0258 6.73619 57.7651 6.89192C57.4843 7.05649 57.1779 7.17295 56.8586 7.23648C56.5659 7.30322 56.2808 7.39943 56.0075 7.52361C55.7558 7.64044 55.4925 7.73028 55.2219 7.79161C54.4725 7.97799 54.3698 8.0193 54.1955 8.20669C54.0045 8.35464 53.783 8.45792 53.5469 8.50894C53.2818 8.58718 53.0263 8.69498 52.7854 8.83033C52.5828 8.94744 52.3644 9.03434 52.1367 9.08825C51.746 9.13575 51.3705 9.26851 51.0368 9.47714C50.846 9.60585 50.6382 9.70755 50.4194 9.77939C50.1869 9.85729 49.9655 9.96498 49.7607 10.0998C49.5476 10.2336 49.3163 10.3353 49.0737 10.402C48.8256 10.4726 48.5849 10.5679 48.3556 10.6861C48.0781 10.8547 47.7745 10.9755 47.4571 11.0438C47.2658 11.0977 47.0859 11.1862 46.9263 11.3047C46.6823 11.5129 46.3955 11.6648 46.0863 11.75C45.9138 11.8098 45.7517 11.8961 45.6058 12.0059C45.4133 12.1386 45.2012 12.2407 44.9773 12.3082C44.7089 12.3952 44.4517 12.5136 44.2108 12.6608C44.0206 12.7825 43.818 12.8839 43.6065 12.9631C43.4167 13.0359 43.238 13.1349 43.0757 13.2573C42.8816 13.3989 42.6772 13.5259 42.4643 13.6371C42.0997 13.8194 42.1037 13.8275 42.6849 14.0491C42.9046 14.1296 43.1125 14.2391 43.3033 14.3746C43.5048 14.5499 43.7374 14.6184 44.5906 14.7554C44.9133 14.8077 45.2313 14.8859 45.5414 14.9891C45.9645 15.1166 46.396 15.2145 46.8327 15.2823C47.2871 15.333 47.7313 15.4523 48.1501 15.6359C48.5367 15.8405 48.9659 15.9513 49.4031 15.9593C49.626 15.9995 49.8555 15.9833 50.0705 15.9121C50.2854 15.8408 50.4792 15.7167 50.6339 15.5513C50.7484 15.4295 50.8821 15.3273 51.0298 15.2491C51.1707 15.1762 51.3019 15.0863 51.4206 14.9811C51.5536 14.8611 51.695 14.7507 51.8436 14.6506C52.2574 14.3626 52.6552 14.0521 53.0352 13.7207C53.2025 13.5796 53.3845 13.4569 53.5781 13.355C53.7047 13.3014 53.8183 13.2213 53.9115 13.1202C54.0144 13.0086 54.1374 12.9173 54.2741 12.8512C54.4709 12.7364 54.6552 12.6013 54.824 12.4482C54.9807 12.3074 55.1559 12.1888 55.3448 12.0956C55.4946 12.0286 55.6335 11.9393 55.7567 11.8306C55.8602 11.7332 55.9772 11.6515 56.1042 11.5878C56.2856 11.4831 56.4546 11.358 56.6078 11.2151C56.7968 11.0489 57.0043 10.9053 57.2263 10.7869C57.3946 10.7062 57.5509 10.6024 57.6906 10.4786C57.8128 10.3682 57.9523 10.2787 58.1036 10.2136C58.3142 10.1116 58.5136 9.98797 58.6988 9.84488C58.87 9.71047 59.0515 9.58986 59.2417 9.48419C59.3591 9.42878 59.4624 9.3475 59.5439 9.24643C59.6659 9.12226 59.8119 9.02422 59.973 8.95828C60.1549 8.8756 60.3276 8.77431 60.4887 8.65604C60.6855 8.48379 60.9224 8.3636 61.1776 8.30643C61.3551 8.25772 61.51 8.14871 61.6158 7.99814C61.7255 7.86122 61.8628 7.74897 62.0187 7.66869C62.1969 7.58215 62.3656 7.47749 62.5223 7.35637C62.7189 7.21327 62.9323 7.09483 63.1579 7.00375C63.3165 6.95013 63.4657 6.87194 63.6 6.77202C63.8331 6.58151 64.0962 6.43103 64.3786 6.32671C64.5211 6.26136 64.6508 6.17092 64.7614 6.05973C64.9456 5.90258 65.1533 5.77511 65.3768 5.68192C65.5558 5.61483 65.7251 5.52437 65.8804 5.41292C66.0186 5.31264 66.172 5.23509 66.3347 5.18321C66.6387 5.12067 66.9138 4.96039 67.1183 4.72681C67.2504 4.59154 67.4116 4.48817 67.5897 4.42457C67.9926 4.28352 68.1245 4.04776 67.8344 3.99739C67.6925 3.96611 67.5565 3.91237 67.4315 3.83821C67.2412 3.72033 67.215 3.71831 67.0528 3.80294L67.0669 3.79488ZM21.4796 28.283C21.2791 28.3401 21.1002 28.456 20.9659 28.6155C20.8068 28.7747 20.5359 29.0316 20.3616 29.1857C20.1873 29.3399 19.9013 29.6129 19.719 29.7902C19.6019 29.9177 19.4661 30.0264 19.3161 30.1126C19.2788 30.1126 19.167 30.2456 19.0663 30.4088C18.978 30.5596 18.8589 30.69 18.7168 30.7917C18.5877 30.8731 18.4747 30.9776 18.3834 31.0999C18.2941 31.2202 18.1927 31.3313 18.0812 31.4314C17.9723 31.5332 17.8772 31.6486 17.7982 31.775C17.7066 31.9137 17.5886 32.0329 17.4507 32.1256C17.349 32.1811 17.2657 32.2651 17.211 32.3674C16.8991 32.7818 16.5352 33.1542 16.1282 33.4756C16.095 33.4756 16.0275 33.5764 15.9781 33.6922C15.8878 33.8697 15.7729 34.0336 15.6367 34.1788C15.4773 34.3531 15.3275 34.5357 15.1875 34.7259C15.1125 34.8431 15.0186 34.947 14.9095 35.0332C14.7943 35.1353 14.6969 35.2558 14.6214 35.3899C14.5252 35.5485 14.4049 35.6913 14.2648 35.813C14.1435 35.9114 14.041 36.0313 13.9627 36.1666C13.8793 36.3092 13.7719 36.4362 13.6454 36.5424C13.5413 36.6244 13.4613 36.733 13.4137 36.8568C13.3578 36.9951 13.2737 37.1203 13.1669 37.2245C12.9969 37.4071 12.8419 37.6032 12.7036 37.8109C12.5903 37.9867 12.463 38.1531 12.3229 38.3086C12.2332 38.4041 12.1588 38.5128 12.1023 38.631C11.8933 38.9856 11.6398 39.312 11.3479 39.6022C11.2347 39.7452 11.0718 39.8406 10.8916 39.8692C10.6076 39.9175 10.4122 40.1241 10.1392 40.6681C9.97841 41.018 9.73675 41.3247 9.43414 41.5628L9.0796 41.8972L8.75225 41.8217C8.59523 41.7875 8.44178 41.7386 8.29396 41.6756C8.03563 41.5988 7.77051 41.5472 7.50227 41.5215C7.05959 41.4582 6.62199 41.3632 6.19287 41.2373C5.45172 41.0185 4.69266 40.8659 3.92459 40.7809C2.93045 40.649 2.02797 40.1986 2.02797 39.8349C2.02797 39.6334 1.83559 39.6112 0.982464 39.7342L0.5 39.7976V40.2903C0.5 40.7678 0.5 40.782 0.638998 40.782C0.782927 40.8138 0.917225 40.8794 1.03081 40.9734L1.37831 41.2363C1.63602 41.3343 1.90245 41.4075 2.17402 41.455C2.49606 41.5056 2.80831 41.6059 3.09966 41.7522C3.41313 41.9104 3.75622 42.0014 4.1069 42.0192C4.67175 42.0551 5.22631 42.1873 5.74667 42.4101C6.07718 42.5416 6.42424 42.6271 6.77807 42.6639C7.88603 42.8322 8.42691 43.0669 8.69181 43.5143C8.84693 43.7692 8.83786 43.8165 8.579 44.0996C8.45922 44.2287 8.36125 44.3764 8.28892 44.5369C8.19707 44.7406 8.08576 44.9349 7.95654 45.1172C7.81829 45.3143 7.70592 45.5283 7.62213 45.7539C7.55749 46.0257 7.43098 46.2787 7.25248 46.4934C7.14936 46.6362 7.06854 46.7939 7.01276 46.9609C6.93813 47.1637 6.83649 47.3555 6.71059 47.5311C6.49739 47.7873 6.35007 48.0916 6.28151 48.4177C6.21916 48.6347 6.12911 48.8425 6.01359 49.0363C5.80039 49.4159 5.65549 49.8298 5.58551 50.2594L5.5563 50.4509H22.3066V50.2665C22.3151 50.1369 22.3534 50.0111 22.4184 49.8988C22.5205 49.6885 22.6012 49.4684 22.6591 49.2419C22.7092 48.9271 22.8491 48.6336 23.062 48.3966C23.1827 48.2041 23.2765 47.9959 23.341 47.778C23.4118 47.5434 23.5189 47.3215 23.6583 47.1201C23.7915 46.9341 23.8892 46.7251 23.9463 46.5035C24.0372 46.2153 24.1588 45.9376 24.3089 45.6753C24.4374 45.4636 24.5472 45.2411 24.6373 45.0104C24.6945 44.8496 24.7875 44.7038 24.9092 44.5842C25.0749 44.4083 25.1943 44.194 25.2567 43.9606C25.4451 43.4327 25.4582 43.3974 25.6042 43.2292C25.7097 43.0682 25.7981 42.8966 25.8681 42.7173C25.9497 42.5132 26.0644 42.324 26.2076 42.1572C26.3341 42.0209 26.4378 41.865 26.5148 41.6958C26.5901 41.5287 26.6837 41.3706 26.7938 41.2242C26.9348 41.0234 27.0575 40.8103 27.1604 40.5875C27.2319 40.4071 27.3342 40.2403 27.4626 40.0948C27.5859 39.9691 27.6859 39.8224 27.7577 39.6616C27.8732 39.4409 28.008 39.2309 28.1606 39.034C28.285 38.8793 28.3901 38.7101 28.4738 38.5302C28.5333 38.3905 28.6123 38.2599 28.7085 38.1423C28.8212 38.0077 28.9207 37.8626 29.0057 37.7091C29.1263 37.5078 29.2704 37.3215 29.4347 37.154C29.5821 37.0071 29.7043 36.8368 29.7963 36.6502C29.8688 36.4911 29.9661 36.3446 30.0844 36.216C30.1619 36.1507 30.2215 36.0668 30.2577 35.9722C30.321 35.8373 30.408 35.7148 30.5145 35.6105C30.7065 35.3845 30.8834 35.1462 31.0443 34.8972C31.1312 34.7388 31.242 34.5947 31.3727 34.47C31.4807 34.3745 31.5696 34.2592 31.6345 34.1305C31.7206 33.977 31.8303 33.8383 31.9599 33.7194C32.0546 33.6416 32.13 33.543 32.1805 33.4313C32.2595 33.2862 32.3691 33.1601 32.5018 33.0615C32.6423 32.9528 32.758 32.8155 32.8412 32.6585C32.9224 32.5015 33.0196 32.3533 33.1313 32.2162C33.6148 31.6521 33.6148 31.4103 33.1313 31.3176C32.9376 31.2636 32.7493 31.1914 32.5692 31.102C32.2413 30.9626 31.8977 30.8635 31.5459 30.8068C31.1245 30.7815 30.7184 30.6399 30.3725 30.3977C29.8762 30.1853 29.3447 30.0672 28.8052 30.0491C28.525 30.0135 28.2488 29.9514 27.9803 29.8638C27.5609 29.7406 27.1343 29.643 26.7031 29.5716C25.5096 29.36 25.4945 29.355 25.2437 29.1847C24.9356 29.0305 24.6029 28.9315 24.2606 28.8925C23.8684 28.825 23.4842 28.7169 23.1144 28.5701C22.6898 28.3869 22.2398 28.2696 21.7798 28.2226C21.7254 28.2226 21.5783 28.2487 21.4565 28.2729" fill="#1F1F1F"/>
<path d="M21.4796 28.283C21.2791 28.3401 21.1002 28.456 20.9659 28.6155C20.8068 28.7747 20.5359 29.0316 20.3616 29.1857C20.1873 29.3399 19.9013 29.6129 19.719 29.7902C19.6019 29.9177 19.4661 30.0264 19.3161 30.1126C19.2788 30.1126 19.167 30.2456 19.0663 30.4088C18.978 30.5596 18.8589 30.69 18.7168 30.7917C18.5877 30.8731 18.4747 30.9776 18.3834 31.0999C18.2941 31.2202 18.1927 31.3313 18.0812 31.4314C17.9723 31.5332 17.8772 31.6486 17.7982 31.775C17.7066 31.9137 17.5886 32.0329 17.4507 32.1256C17.349 32.1811 17.2657 32.2651 17.211 32.3674C16.8991 32.7818 16.5352 33.1542 16.1282 33.4756C16.095 33.4756 16.0275 33.5764 15.9781 33.6922C15.8878 33.8697 15.7729 34.0336 15.6367 34.1788C15.4773 34.3531 15.3275 34.5357 15.1875 34.7259C15.1125 34.8431 15.0186 34.947 14.9095 35.0332C14.7943 35.1353 14.6969 35.2558 14.6214 35.3899C14.5252 35.5485 14.4049 35.6913 14.2648 35.813C14.1435 35.9114 14.041 36.0313 13.9627 36.1666C13.8793 36.3092 13.7719 36.4362 13.6454 36.5424C13.5413 36.6244 13.4613 36.733 13.4137 36.8568C13.3578 36.9951 13.2737 37.1203 13.1669 37.2245C12.9969 37.4071 12.8419 37.6032 12.7036 37.8109C12.5903 37.9867 12.463 38.1531 12.3229 38.3086C12.2332 38.4041 12.1588 38.5128 12.1023 38.631C11.8933 38.9856 11.6398 39.312 11.3479 39.6022C11.2347 39.7452 11.0718 39.8406 10.8916 39.8692C10.6076 39.9175 10.4122 40.1241 10.1392 40.6681C9.97841 41.018 9.73675 41.3247 9.43414 41.5628L9.0796 41.8972L8.75225 41.8217C8.59523 41.7875 8.44178 41.7386 8.29396 41.6756C8.03563 41.5988 7.77051 41.5472 7.50227 41.5215C7.05959 41.4582 6.62199 41.3632 6.19287 41.2373C5.45172 41.0185 4.69266 40.8659 3.92459 40.7809C2.93045 40.649 2.02797 40.1986 2.02797 39.8349C2.02797 39.6334 1.83559 39.6112 0.982464 39.7342L0.5 39.7976V40.2903C0.5 40.7678 0.5 40.782 0.638998 40.782C0.782927 40.8138 0.917225 40.8794 1.03081 40.9734L1.37831 41.2363C1.63602 41.3343 1.90245 41.4075 2.17402 41.455C2.49606 41.5056 2.80831 41.6059 3.09966 41.7522C3.41313 41.9104 3.75622 42.0014 4.1069 42.0192C4.67175 42.0551 5.22631 42.1873 5.74667 42.4101C6.07718 42.5416 6.42424 42.6271 6.77807 42.6639C7.88603 42.8322 8.42691 43.0669 8.69181 43.5143C8.84693 43.7692 8.83786 43.8165 8.579 44.0996C8.45922 44.2287 8.36125 44.3764 8.28892 44.5369C8.19707 44.7406 8.08576 44.9349 7.95654 45.1172C7.81829 45.3143 7.70592 45.5283 7.62213 45.7539C7.55749 46.0257 7.43098 46.2787 7.25248 46.4934C7.14936 46.6362 7.06854 46.7939 7.01276 46.9609C6.93813 47.1637 6.83649 47.3555 6.71059 47.5311C6.49739 47.7873 6.35007 48.0916 6.28151 48.4177C6.21916 48.6347 6.12911 48.8425 6.01359 49.0363C5.80039 49.4159 5.65549 49.8298 5.58551 50.2594L5.5563 50.4509H22.3066V50.2665C22.3151 50.1369 22.3534 50.0111 22.4184 49.8988C22.5205 49.6885 22.6012 49.4684 22.6591 49.2419C22.7092 48.9271 22.8491 48.6336 23.062 48.3966C23.1827 48.2041 23.2765 47.9959 23.341 47.778C23.4118 47.5434 23.5189 47.3215 23.6583 47.1201C23.7915 46.9341 23.8892 46.7251 23.9463 46.5035C24.0372 46.2153 24.1588 45.9376 24.3089 45.6753C24.4374 45.4636 24.5472 45.2411 24.6373 45.0104C24.6945 44.8496 24.7875 44.7038 24.9092 44.5842C25.0749 44.4083 25.1943 44.194 25.2567 43.9606C25.4451 43.4327 25.4582 43.3974 25.6042 43.2292C25.7097 43.0682 25.7981 42.8966 25.8681 42.7173C25.9497 42.5132 26.0644 42.324 26.2076 42.1572C26.3341 42.0209 26.4378 41.865 26.5148 41.6958C26.5901 41.5287 26.6837 41.3706 26.7938 41.2242C26.9348 41.0234 27.0575 40.8103 27.1604 40.5875C27.2319 40.4071 27.3342 40.2403 27.4626 40.0948C27.5859 39.9691 27.6859 39.8224 27.7577 39.6616C27.8732 39.4409 28.008 39.2309 28.1606 39.034C28.285 38.8793 28.3901 38.7101 28.4738 38.5302C28.5333 38.3905 28.6123 38.2599 28.7085 38.1423C28.8212 38.0077 28.9207 37.8626 29.0057 37.7091C29.1263 37.5078 29.2704 37.3215 29.4347 37.154C29.5821 37.0071 29.7043 36.8368 29.7963 36.6502C29.8688 36.4911 29.9661 36.3446 30.0844 36.216C30.1619 36.1507 30.2215 36.0668 30.2577 35.9722C30.321 35.8373 30.408 35.7148 30.5145 35.6105C30.7065 35.3845 30.8834 35.1462 31.0443 34.8972C31.1312 34.7388 31.242 34.5947 31.3727 34.47C31.4807 34.3745 31.5696 34.2592 31.6345 34.1305C31.7206 33.977 31.8303 33.8383 31.9599 33.7194C32.0546 33.6416 32.13 33.543 32.1805 33.4313C32.2595 33.2862 32.3691 33.1601 32.5018 33.0615C32.6423 32.9528 32.758 32.8155 32.8412 32.6585C32.9224 32.5015 33.0196 32.3533 33.1313 32.2162C33.6148 31.6521 33.6148 31.4103 33.1313 31.3176C32.9376 31.2636 32.7493 31.1914 32.5692 31.102C32.2413 30.9626 31.8977 30.8635 31.5459 30.8068C31.1245 30.7815 30.7184 30.6399 30.3725 30.3977C29.8762 30.1853 29.3447 30.0672 28.8052 30.0491C28.525 30.0135 28.2488 29.9514 27.9803 29.8638C27.5609 29.7406 27.1343 29.643 26.7031 29.5716C25.5096 29.36 25.4945 29.355 25.2437 29.1847C24.9356 29.0305 24.6029 28.9315 24.2606 28.8925C23.8684 28.825 23.4842 28.7169 23.1144 28.5701C22.6898 28.3869 22.2398 28.2696 21.7798 28.2226C21.7254 28.2226 21.5783 28.2487 21.4565 28.2729L21.4796 28.283ZM67.0669 3.79488C66.8172 3.90547 66.5621 4.00331 66.3024 4.08806C65.9781 4.19687 65.5631 4.33792 65.3808 4.4024C65.0742 4.49447 64.7615 4.56516 64.4451 4.61397C64.0165 4.64516 63.6063 4.8006 63.2646 5.0613C63.0343 5.18173 62.7848 5.26148 62.5273 5.29705C62.1824 5.36344 61.8465 5.471 61.5272 5.61744C61.1977 5.76956 60.8495 5.87729 60.4917 5.93782C60.0932 5.96506 59.7075 6.08996 59.3687 6.30152C59.1274 6.42112 58.8723 6.51046 58.6092 6.5675C58.3114 6.62645 58.0258 6.73619 57.7651 6.89192C57.4843 7.05649 57.1779 7.17295 56.8586 7.23648C56.5659 7.30322 56.2808 7.39943 56.0075 7.52361C55.7558 7.64044 55.4925 7.73028 55.2219 7.79161C54.4725 7.97799 54.3698 8.0193 54.1955 8.20669C54.0045 8.35464 53.783 8.45792 53.5469 8.50894C53.2818 8.58718 53.0263 8.69498 52.7854 8.83033C52.5828 8.94744 52.3644 9.03434 52.1367 9.08825C51.746 9.13575 51.3705 9.26851 51.0368 9.47714C50.846 9.60585 50.6382 9.70755 50.4194 9.77939C50.1869 9.85729 49.9655 9.96498 49.7607 10.0998C49.5476 10.2336 49.3163 10.3353 49.0737 10.402C48.8256 10.4726 48.5849 10.5679 48.3556 10.6861C48.0781 10.8547 47.7745 10.9755 47.4571 11.0438C47.2658 11.0977 47.0859 11.1862 46.9263 11.3047C46.6823 11.5129 46.3955 11.6648 46.0863 11.75C45.9138 11.8098 45.7517 11.8961 45.6058 12.0059C45.4133 12.1386 45.2012 12.2407 44.9773 12.3082C44.7089 12.3952 44.4517 12.5136 44.2108 12.6608C44.0206 12.7825 43.818 12.8839 43.6065 12.9631C43.4167 13.0359 43.238 13.1349 43.0757 13.2573C42.8816 13.3989 42.6772 13.5259 42.4643 13.6371C42.0997 13.8194 42.1037 13.8275 42.6849 14.0491C42.9046 14.1296 43.1125 14.2391 43.3033 14.3746C43.5048 14.5499 43.7374 14.6184 44.5906 14.7554C44.9133 14.8077 45.2313 14.8859 45.5414 14.9891C45.9645 15.1166 46.396 15.2145 46.8327 15.2823C47.2871 15.333 47.7313 15.4523 48.1501 15.6359C48.5367 15.8405 48.9659 15.9513 49.4031 15.9593C49.626 15.9995 49.8555 15.9833 50.0705 15.9121C50.2854 15.8408 50.4792 15.7167 50.6339 15.5513C50.7484 15.4295 50.8821 15.3273 51.0298 15.2491C51.1707 15.1762 51.3019 15.0863 51.4206 14.9811C51.5536 14.8611 51.695 14.7507 51.8436 14.6506C52.2574 14.3626 52.6552 14.0521 53.0352 13.7207C53.2025 13.5796 53.3845 13.4569 53.5781 13.355C53.7047 13.3014 53.8183 13.2213 53.9115 13.1202C54.0144 13.0086 54.1374 12.9173 54.2741 12.8512C54.4709 12.7364 54.6552 12.6013 54.824 12.4482C54.9807 12.3074 55.1559 12.1888 55.3448 12.0956C55.4946 12.0286 55.6335 11.9393 55.7567 11.8306C55.8602 11.7332 55.9772 11.6515 56.1042 11.5878C56.2856 11.4831 56.4546 11.358 56.6078 11.2151C56.7968 11.0489 57.0043 10.9053 57.2263 10.7869C57.3946 10.7062 57.5509 10.6024 57.6906 10.4786C57.8128 10.3682 57.9523 10.2787 58.1036 10.2136C58.3142 10.1116 58.5136 9.98797 58.6988 9.84488C58.87 9.71047 59.0515 9.58986 59.2417 9.48419C59.3591 9.42878 59.4624 9.3475 59.5439 9.24643C59.6659 9.12226 59.8119 9.02422 59.973 8.95828C60.1549 8.8756 60.3276 8.77431 60.4887 8.65604C60.6855 8.48379 60.9224 8.3636 61.1776 8.30643C61.3551 8.25772 61.51 8.14871 61.6158 7.99814C61.7255 7.86122 61.8628 7.74897 62.0187 7.66869C62.1969 7.58215 62.3656 7.47749 62.5223 7.35637C62.7189 7.21327 62.9323 7.09483 63.1579 7.00375C63.3165 6.95013 63.4657 6.87194 63.6 6.77202C63.8331 6.58151 64.0962 6.43103 64.3786 6.32671C64.5211 6.26136 64.6508 6.17092 64.7614 6.05973C64.9456 5.90258 65.1533 5.77511 65.3768 5.68192C65.5558 5.61483 65.7251 5.52437 65.8804 5.41292C66.0186 5.31264 66.172 5.23509 66.3347 5.18321C66.6387 5.12067 66.9138 4.96039 67.1183 4.72681C67.2504 4.59154 67.4116 4.48817 67.5897 4.42457C67.9926 4.28352 68.1245 4.04776 67.8344 3.99739C67.6925 3.96611 67.5565 3.91237 67.4315 3.83821C67.2412 3.72033 67.215 3.71831 67.0528 3.80294L67.0669 3.79488Z" stroke="#1F1F1F"/>
</svg>
