<?xml version="1.0" encoding="utf-8"?>
<!-- Generator: Adobe Illustrator 24.0.3, SVG Export Plug-In . SVG Version: 6.00 Build 0)  -->
<svg version="1.1" id="Слой_1" xmlns="http://www.w3.org/2000/svg" xmlns:xlink="http://www.w3.org/1999/xlink" x="0px" y="0px"
	 viewBox="0 0 64.8 56.5" style="enable-background:new 0 0 64.8 56.5;" xml:space="preserve">
<style type="text/css">
	.st0{fill:#FFFFFF;}
	.st1{fill:#DFE9EB;}
	.st2{enable-background:new    ;}
	.st3{fill:#962932;}
</style>
<path class="st0" d="M48.3,56H16.5L0.6,28.2L16.5,0.5h31.8l15.9,27.7L48.3,56z"/>
<path class="st1" d="M16.8,1L1.2,28.2l15.6,27.2H48l15.6-27.2L48,1H16.8 M16.2,0h32.4l16.2,28.2L48.6,56.5H16.2L0,28.2L16.2,0z"/>
<g class="st2">
	<path class="st3" d="M39.7,26c0,2.8-0.9,3.6-5.9,11.6c-0.7,1.2-2.4,1.2-3.2,0c-5-8-5.9-8.8-5.9-11.6c0-4.1,3.4-7.5,7.5-7.5
		C36.3,18.5,39.7,21.9,39.7,26z M37.8,26c0-3.1-2.5-5.6-5.6-5.6s-5.6,2.5-5.6,5.6c0,2.1,0.6,2.6,5.6,10.6
		C37.2,28.6,37.8,28.1,37.8,26z M32.2,22.9c1.7,0,3.1,1.4,3.1,3.1s-1.4,3.1-3.1,3.1c-1.7,0-3.1-1.4-3.1-3.1S30.4,22.9,32.2,22.9z"/>
</g>
</svg>
