<svg width="256" height="512" viewBox="0 0 256 512" fill="none" xmlns="http://www.w3.org/2000/svg">
<path d="M128 0C57.417 0 0 57.417 0 128C0 194.983 51.734 250.01 117.333 255.46V501.334C117.333 507.23 122.104 512.001 128 512.001C133.896 512.001 138.667 507.23 138.667 501.334V255.46C204.266 250.01 256 194.983 256 128C256 57.417 198.583 0 128 0ZM128 64C92.708 64 64 92.708 64 128C64 133.896 59.229 138.667 53.333 138.667C47.437 138.667 42.666 133.896 42.666 128C42.666 80.948 80.947 42.667 127.999 42.667C133.895 42.667 138.666 47.438 138.666 53.334C138.667 59.229 133.896 64 128 64Z" fill="#8A3235"/>
</svg>
