<?xml version="1.0" encoding="utf-8"?>
<!-- Generator: Adobe Illustrator 24.0.3, SVG Export Plug-In . SVG Version: 6.00 Build 0)  -->
<svg version="1.1" id="Слой_1" xmlns="http://www.w3.org/2000/svg" xmlns:xlink="http://www.w3.org/1999/xlink" x="0px" y="0px"
	 viewBox="0 0 64.8 56.5" style="enable-background:new 0 0 64.8 56.5;" xml:space="preserve">
<style type="text/css">
	.st0{fill:#FFFFFF;}
	.st1{fill:#DFE9EB;}
	.st2{enable-background:new    ;}
	.st3{fill:#962932;}
</style>
<g id="Polygon_9" transform="translate(28.034 1489)">
	<path class="st0" d="M20.3-1433h-31.8l-15.9-27.7l15.9-27.7h31.8l15.9,27.7L20.3-1433z"/>
	<path class="st1" d="M-11.2-1488l-15.6,27.2l15.6,27.2H20l15.6-27.2L20-1488H-11.2 M-11.8-1489h32.4l16.2,28.2l-16.2,28.2h-32.4
		l-16.2-28.2L-11.8-1489z"/>
</g>
<g class="st2">
	<path class="st3" d="M41.8,22.9v11.2c0,1-0.8,1.9-1.9,1.9H23.7c-1,0-1.9-0.8-1.9-1.9V22.9c0-1,0.8-1.9,1.9-1.9h16.2
		C40.9,21,41.8,21.8,41.8,22.9z M23.7,22.9v1.6c0.9,0.7,2.3,1.8,5.3,4.2c0.7,0.5,2,1.8,2.9,1.7c0.9,0,2.2-1.2,2.9-1.7
		c3-2.3,4.4-3.4,5.3-4.2v-1.6H23.7z M39.9,34.1v-7.2c-0.9,0.7-2.2,1.7-4.1,3.2c-0.9,0.7-2.4,2.2-4,2.1c-1.7,0-3.2-1.5-4-2.1
		c-1.9-1.5-3.2-2.5-4.1-3.2v7.2H39.9z"/>
</g>
</svg>
