<?xml version="1.0" encoding="utf-8"?>
<!-- Generator: Adobe Illustrator 24.0.3, SVG Export Plug-In . SVG Version: 6.00 Build 0)  -->
<svg version="1.1" id="Слой_1" xmlns="http://www.w3.org/2000/svg" xmlns:xlink="http://www.w3.org/1999/xlink" x="0px" y="0px"
	 viewBox="0 0 64.8 56.5" style="enable-background:new 0 0 64.8 56.5;" xml:space="preserve">
<style type="text/css">
	.st0{fill:#FFFFFF;}
	.st1{fill:#DFE9EB;}
	.st2{enable-background:new    ;}
	.st3{fill:#962932;}
</style>
<g id="Polygon_19" transform="translate(341.966 1555)">
	<path class="st0" d="M-293.6-1499h-31.8l-15.9-27.7l15.9-27.7h31.8l15.9,27.7L-293.6-1499z"/>
	<path class="st1" d="M-325.2-1554l-15.6,27.2l15.6,27.2h31.3l15.6-27.2l-15.6-27.2H-325.2 M-325.8-1555h32.4l16.2,28.2l-16.2,28.2
		h-32.4l-16.2-28.2L-325.8-1555z"/>
</g>
<g class="st2">
	<path class="st3" d="M41.5,28.5c0,5.4-4.3,9.7-9.7,9.7s-9.7-4.3-9.7-9.7s4.3-9.7,9.7-9.7S41.5,23.1,41.5,28.5z M39.6,28.5
		c0-4.3-3.5-7.8-7.8-7.8S24,24.2,24,28.5s3.5,7.8,7.8,7.8S39.6,32.8,39.6,28.5z M30.9,29.8c-0.1-0.1-0.2-0.2-0.2-0.4V23
		c0-0.3,0.2-0.5,0.5-0.5h1.2c0.3,0,0.5,0.2,0.5,0.5v5.5l2.6,1.9c0.2,0.2,0.3,0.4,0.1,0.7l-0.7,1c-0.2,0.2-0.4,0.3-0.7,0.1L30.9,29.8
		z"/>
</g>
</svg>
