<?xml version="1.0" encoding="utf-8"?>
<!-- Generator: Adobe Illustrator 24.0.3, SVG Export Plug-In . SVG Version: 6.00 Build 0)  -->
<svg version="1.1" id="Слой_1" xmlns="http://www.w3.org/2000/svg" xmlns:xlink="http://www.w3.org/1999/xlink" x="0px" y="0px"
	 viewBox="0 0 64.8 56.5" style="enable-background:new 0 0 64.8 56.5;" xml:space="preserve">
<style type="text/css">
	.st0{fill:#FFFFFF;}
	.st1{fill:#DFE9EB;}
	.st2{enable-background:new    ;}
	.st3{fill:#962932;}
</style>
<g id="Polygon_20" transform="translate(341.966 1620)">
	<path class="st0" d="M-293.6-1564h-31.8l-15.9-27.7l15.9-27.7h31.8l15.9,27.7L-293.6-1564z"/>
	<path class="st1" d="M-325.2-1619l-15.6,27.2l15.6,27.2h31.3l15.6-27.2l-15.6-27.2H-325.2 M-325.8-1620h32.4l16.2,28.2l-16.2,28.2
		h-32.4l-16.2-28.2L-325.8-1620z"/>
</g>
<g class="st2">
	<path class="st3" d="M40.7,32.9c0,2.4-2,4.4-4.4,4.4c-1,0-1.9-0.3-2.7-0.9c-0.6,0.1-1.1,0.2-1.7,0.2c-4.4,0-8-3.6-8-8
		c0-0.6,0.1-1.2,0.2-1.7c-0.6-0.7-0.9-1.7-0.9-2.7c0-2.4,2-4.4,4.4-4.4c1,0,1.9,0.3,2.7,0.9c0.6-0.1,1.1-0.2,1.7-0.2
		c4.4,0,8,3.6,8,8c0,0.6-0.1,1.2-0.2,1.7C40.3,30.9,40.7,31.9,40.7,32.9z M36.5,30.4c0-2-1.9-2.7-3.5-3c-1.9-0.4-2.7-0.5-2.7-1.3
		c0-0.6,0.6-0.9,1.6-0.9c1.8,0,1.8,1.3,2.9,1.3c0.7,0,1.2-0.6,1.2-1.2c0-1.3-2.2-2.2-4.3-2.2c-2,0-4.3,0.9-4.3,3.2
		c0,2.5,2.2,2.8,4.6,3.4c1,0.2,1.6,0.4,1.6,1.1c0,0.6-0.6,1-1.7,1c-2.1,0-2.2-1.8-3.4-1.8c-0.8,0-1.2,0.6-1.2,1.2
		c0,1.4,2.1,2.5,4.7,2.5C34.3,33.8,36.5,32.7,36.5,30.4z"/>
</g>
</svg>
