<svg width="142" height="51" viewBox="0 0 142 51" fill="none" xmlns="http://www.w3.org/2000/svg">
<g clip-path="url(#clip0)">
<path fill-rule="evenodd" clip-rule="evenodd" d="M46.088 0.589001C45.874 0.644001 45.554 0.730001 45.377 0.780001C45.0902 0.851845 44.7926 0.870821 44.499 0.836001C44.17 0.805785 43.8383 0.824998 43.515 0.893001C43.1618 0.955713 42.8037 0.986836 42.445 0.986001C42.1552 0.963394 41.8638 0.995623 41.586 1.081C41.3729 1.15825 41.1534 1.21648 40.93 1.255C40.688 1.299 40.372 1.355 40.23 1.388C40.088 1.421 39.598 1.46 39.147 1.482C38.17 1.53 37.973 1.573 37.72 1.799C37.6423 1.87113 37.5504 1.92619 37.4502 1.96063C37.3499 1.99508 37.2436 2.00815 37.138 1.999C36.6346 2.05352 36.1452 2.19815 35.693 2.426C35.0368 2.65806 34.3502 2.79282 33.655 2.826C33.123 2.864 33.055 2.882 32.826 3.058C32.6566 3.19365 32.4503 3.27519 32.234 3.292C31.9427 3.30327 31.6654 3.42022 31.454 3.621C31.259 3.76066 31.0268 3.839 30.787 3.846C30.5195 3.87337 30.2602 3.95359 30.024 4.082C29.7602 4.21859 29.4864 4.33492 29.205 4.43C28.912 4.49807 28.6452 4.6499 28.437 4.867C28.2403 5.08541 27.9694 5.22296 27.677 5.253C27.5563 5.29661 27.4419 5.35613 27.337 5.43C27.1319 5.55363 26.918 5.66193 26.697 5.754C26.4906 5.83902 26.2949 5.9481 26.114 6.079C25.9688 6.19148 25.8119 6.28804 25.646 6.367C25.459 6.46472 25.2883 6.59089 25.14 6.741C25.0184 6.87307 24.8682 6.97567 24.701 7.041C24.4532 7.09182 24.2252 7.21259 24.044 7.389C23.9432 7.49399 23.8221 7.57735 23.688 7.634C23.4995 7.73209 23.3302 7.86316 23.188 8.021C23.0703 8.16126 22.9279 8.27885 22.768 8.368C22.5744 8.47921 22.3933 8.61097 22.228 8.761C21.656 9.28 21.471 9.44 21.238 9.616C20.7817 9.98035 20.3714 10.3987 20.016 10.862C19.8241 11.1349 19.6161 11.396 19.393 11.644C19.1804 11.8767 18.9864 12.1258 18.813 12.389C18.7217 12.5444 18.6089 12.6861 18.478 12.81C18.3493 12.9345 18.2472 13.0838 18.178 13.249C18.1207 13.4012 18.0441 13.5454 17.95 13.678C17.8279 13.8711 17.7273 14.077 17.65 14.292C17.5514 14.5473 17.4271 14.7919 17.279 15.022C17.1604 15.1936 17.0659 15.3807 16.998 15.578C16.962 15.711 16.898 15.927 16.851 16.057C16.7667 16.524 16.7391 16.9994 16.769 17.473C16.769 18.998 16.869 19.454 17.297 20.005C17.4093 20.1528 17.5096 20.3093 17.597 20.473C17.8613 20.9104 18.1997 21.2985 18.597 21.62C18.7429 21.71 18.8799 21.8138 19.006 21.93L19.553 22.425C19.7443 22.5927 19.9619 22.7279 20.197 22.825C20.4445 22.9273 20.6816 23.0532 20.905 23.201C21.1224 23.346 21.3535 23.4693 21.595 23.569C21.8166 23.658 22.029 23.7685 22.229 23.899C22.4802 24.0503 22.7488 24.1705 23.029 24.257C23.282 24.3321 23.5279 24.4291 23.764 24.547C24.0258 24.6648 24.3008 24.7511 24.583 24.804C24.924 24.8739 25.2563 24.9809 25.574 25.123C25.8339 25.2434 26.1071 25.3327 26.388 25.389C26.7134 25.4119 27.0266 25.5217 27.295 25.707C27.4846 25.8132 27.6932 25.8812 27.909 25.907C28.134 25.942 28.503 26.021 28.728 26.083C29.0153 26.1566 29.3064 26.2147 29.6 26.257C29.7795 26.2733 29.9564 26.3109 30.127 26.369C30.4981 26.5369 30.8958 26.6385 31.302 26.669C31.7855 26.6876 32.2565 26.8283 32.671 27.078C32.7838 27.1627 32.9133 27.2223 33.051 27.253C33.2303 27.2696 33.4083 27.2976 33.584 27.337C33.809 27.383 34.184 27.45 34.42 27.484C34.661 27.5203 34.8962 27.5876 35.12 27.684C35.6508 27.9197 36.2286 28.0305 36.809 28.008C36.9906 28.0406 37.1599 28.1218 37.299 28.243C37.471 28.3889 37.6814 28.4823 37.905 28.512C38.2896 28.5807 38.6563 28.7267 38.983 28.941C39.191 29.053 39.4102 29.1429 39.637 29.209C39.8767 29.2799 40.1065 29.3807 40.321 29.509C40.3962 29.5734 40.4836 29.6221 40.578 29.652C40.9503 29.9437 41.2878 30.2772 41.584 30.646C41.6756 30.8976 41.696 31.1697 41.6431 31.4322C41.5902 31.6947 41.4659 31.9375 41.284 32.134C41.2113 32.2033 41.1664 32.2969 41.158 32.397C41.1567 32.6922 41.043 32.9758 40.84 33.19C40.7255 33.2986 40.6248 33.4209 40.54 33.554C40.4621 33.6745 40.3565 33.7746 40.232 33.846C40.0928 33.9257 39.9638 34.022 39.848 34.133C39.6806 34.2725 39.4872 34.3776 39.279 34.442C39.0754 34.5016 38.8869 34.6039 38.726 34.742C38.5645 34.8852 38.37 34.9862 38.16 35.036C37.9495 35.0966 37.7507 35.1922 37.572 35.319C37.3518 35.5237 37.0752 35.6575 36.778 35.703C36.5658 35.7583 36.3635 35.846 36.178 35.963C35.9957 36.0803 35.7916 36.1599 35.578 36.197C34.778 36.35 34.51 36.441 34.302 36.638C34.152 36.7664 33.9794 36.8657 33.793 36.931C33.7054 36.9499 33.6224 36.9862 33.5491 37.0377C33.4757 37.0893 33.4135 37.155 33.366 37.231C33.2357 37.4103 33.0468 37.5383 32.832 37.593C32.547 37.707 32.404 37.798 32.367 37.893C32.2541 38.108 32.1289 38.3164 31.992 38.517C31.8684 38.6902 31.7603 38.8739 31.669 39.066C31.5859 39.3669 31.4393 39.6466 31.239 39.886C31.1126 40.0398 31.0042 40.2076 30.916 40.386C30.8482 40.5331 30.748 40.663 30.623 40.766C30.523 40.838 30.44 40.933 30.44 40.978C30.3691 41.315 30.2273 41.6331 30.024 41.911C29.868 42.1374 29.7498 42.3877 29.674 42.652C29.6044 42.8887 29.5035 43.115 29.374 43.325L29.257 43.451L29.557 43.551C29.926 43.647 30.3104 43.6691 30.688 43.616C31.145 43.597 32.059 43.561 32.719 43.536C33.194 43.57 33.6712 43.5202 34.129 43.389C34.4115 43.2904 34.7079 43.2378 35.007 43.233C35.386 43.203 35.893 43.151 36.135 43.117C36.377 43.083 37.115 43.036 37.777 43.011C38.977 42.967 38.977 42.967 39.336 42.781C39.8566 42.547 40.416 42.4114 40.986 42.381C41.1928 42.3628 41.3981 42.3293 41.6 42.281C41.7794 42.2362 41.9614 42.2028 42.145 42.181C42.3643 42.1487 42.5785 42.0879 42.782 42C43.2142 41.8511 43.6647 41.7619 44.121 41.735C45.08 41.615 45.215 41.584 45.46 41.429C45.6291 41.3264 45.8149 41.2543 46.009 41.216C46.4436 41.1338 46.8688 41.0078 47.278 40.84C47.6522 40.6582 48.0506 40.5312 48.461 40.463C48.7824 40.4053 49.0926 40.297 49.38 40.142C49.7321 39.9388 50.1287 39.8248 50.535 39.81C50.846 39.776 51.113 39.627 51.113 39.487C51.113 39.417 51.396 39.271 51.801 39.132C51.9855 39.0667 52.1584 38.9721 52.313 38.852C52.5857 38.6552 52.9002 38.5241 53.232 38.469C53.3423 38.4366 53.4429 38.3775 53.525 38.297C53.6927 38.1592 53.8748 38.0399 54.068 37.941C54.2729 37.8352 54.4637 37.7042 54.636 37.551C54.762 37.4308 54.9078 37.3334 55.067 37.263C55.2128 37.202 55.3447 37.1122 55.455 36.999C55.553 36.8919 55.6691 36.8028 55.798 36.736C55.9339 36.6635 56.0545 36.5654 56.153 36.447C56.2865 36.2974 56.4395 36.1666 56.608 36.058C56.9971 35.7799 57.3564 35.4622 57.68 35.11L58.111 34.671C58.2832 34.4941 58.4361 34.2993 58.567 34.09C58.6533 33.9393 58.7642 33.8041 58.895 33.69C59.0269 33.5691 59.1336 33.4233 59.209 33.261C59.2641 33.0979 59.3802 32.9624 59.533 32.883C59.672 32.825 59.728 32.753 59.776 32.567C59.8639 32.2049 60.0012 31.8567 60.184 31.532C60.2892 31.3455 60.3727 31.1475 60.433 30.942C60.541 30.596 60.604 30.488 60.752 30.394C60.991 30.243 60.99 30.245 61.088 29.346C61.1118 28.9328 61.2013 28.5261 61.353 28.141C61.597 27.553 61.653 27.01 61.478 26.917C61.303 26.824 61.178 26.542 61.114 26.1C61.033 25.5 60.943 25.229 60.791 25.129C60.5918 24.9449 60.4525 24.7052 60.391 24.441C60.0709 23.8835 59.6392 23.3981 59.123 23.015C58.937 22.901 58.7685 22.7605 58.623 22.598C58.5282 22.4785 58.4084 22.3812 58.272 22.313C58.1452 22.2529 58.0337 22.1646 57.946 22.055C57.8539 21.9369 57.7246 21.8533 57.579 21.818C57.266 21.7762 56.9717 21.6446 56.732 21.439C56.62 21.3354 56.4884 21.2551 56.345 21.203C56.0493 21.1295 55.7779 20.9799 55.558 20.769C55.4832 20.6765 55.3898 20.6008 55.2838 20.5467C55.1779 20.4926 55.0618 20.4614 54.943 20.455C54.6449 20.4314 54.3581 20.3304 54.111 20.162C53.9007 20.0352 53.6658 19.9548 53.422 19.926C53.0015 19.8761 52.5997 19.7236 52.252 19.482C52.144 19.382 51.962 19.331 50.982 19.132C50.7867 19.0934 50.602 19.0136 50.44 18.898C50.2756 18.7696 50.0745 18.6971 49.866 18.691C49.1986 18.6296 48.542 18.4814 47.913 18.25C47.6222 18.1265 47.3177 18.0382 47.006 17.987C46.5981 17.969 46.2019 17.8445 45.857 17.626C45.596 17.426 45.414 17.384 44.528 17.284C44.0117 17.2704 43.5036 17.1513 43.035 16.934C42.7807 16.8356 42.5154 16.7685 42.245 16.734C41.7986 16.7072 41.3709 16.545 41.019 16.269C40.9049 16.2055 40.7796 16.1644 40.65 16.148C40.1793 16.0695 39.7229 15.9212 39.296 15.708C39.0931 15.5968 38.8776 15.5105 38.654 15.451C38.3464 15.4052 38.0624 15.2594 37.846 15.036C37.7501 14.9464 37.6363 14.8782 37.512 14.836C37.4249 14.8097 37.3443 14.7654 37.2754 14.706C37.2065 14.6465 37.1508 14.5733 37.112 14.491C37.0228 14.3215 36.8775 14.1883 36.701 14.114C36.5459 14.0496 36.4151 13.9379 36.327 13.795C36.2671 13.6818 36.1875 13.5803 36.092 13.495C35.88 13.1009 35.77 12.6601 35.7719 12.2126C35.7739 11.7651 35.8877 11.3253 36.103 10.933C36.2288 10.7696 36.3253 10.5855 36.388 10.389C36.4402 10.1948 36.5438 10.0182 36.688 9.878C36.8435 9.71054 36.972 9.51993 37.069 9.313C37.1476 9.128 37.2649 8.96196 37.413 8.826C37.5231 8.74912 37.6167 8.65083 37.688 8.537C37.7635 8.41862 37.8755 8.32805 38.007 8.279C38.0924 8.24881 38.17 8.19966 38.2337 8.13523C38.2974 8.0708 38.3457 7.99277 38.375 7.907C38.4421 7.74482 38.5614 7.60968 38.714 7.523C38.8346 7.45634 38.9375 7.36169 39.014 7.247C39.0971 7.12762 39.208 7.03017 39.337 6.963C39.519 6.85993 39.6917 6.74114 39.853 6.608C40.0213 6.47046 40.2077 6.35673 40.407 6.27C40.5699 6.20475 40.7189 6.10904 40.846 5.988C41.0273 5.82813 41.2433 5.71274 41.477 5.651C41.6996 5.58077 41.9113 5.4798 42.106 5.351C42.2946 5.22548 42.5088 5.1435 42.733 5.111C43.524 4.946 43.672 4.896 43.812 4.747C44.012 4.529 44.198 4.453 44.76 4.356C45.0039 4.33757 45.239 4.25701 45.443 4.122C45.688 3.916 46.233 3.812 47.81 3.672C48.2094 3.65667 48.6041 3.57977 48.98 3.444C49.7093 3.20308 50.4754 3.09306 51.243 3.119C51.897 3.074 52.656 3.011 52.929 2.979C55.4643 2.70431 58.0181 2.64076 60.564 2.789C60.982 2.831 61.786 2.889 62.349 2.914C62.912 2.939 63.531 2.993 63.724 3.03C63.917 3.067 64.615 3.118 65.275 3.144C66.651 3.198 66.796 3.234 66.796 3.52C66.796 3.996 67.601 4.114 67.982 3.694C68.151 3.508 67.569 3.21 67.038 3.21C66.957 3.21 66.904 3.162 66.88 3.065C66.841 2.911 66.853 2.915 66.065 2.797C65.5961 2.74507 65.1387 2.61706 64.711 2.418C64.5795 2.34414 64.436 2.29436 64.287 2.271C63.7481 2.21772 63.2218 2.07475 62.73 1.848C62.1069 1.58634 61.4378 1.45203 60.762 1.453C60.5185 1.44373 60.2762 1.41328 60.038 1.362C59.813 1.312 59.468 1.25 59.272 1.223C59.1036 1.20401 58.9383 1.16369 58.78 1.103C58.5439 1.03449 58.3006 0.993876 58.055 0.982001C57.73 0.955001 57.213 0.906001 56.908 0.872001C56.603 0.838001 56.07 0.811001 55.725 0.811001C55.43 0.819776 55.135 0.791556 54.847 0.727001C54.247 0.527001 53.937 0.513001 50.212 0.501001C48.8374 0.412026 47.4576 0.441468 46.088 0.589001V0.589001ZM77.238 16.699C77.174 16.712 76.713 16.749 76.214 16.782C75.7831 16.7754 75.3545 16.8452 74.948 16.988C74.5526 17.1161 74.1472 17.2108 73.736 17.271L72.882 17.408L72.661 17.647C72.4973 17.8259 72.2844 17.9526 72.049 18.011C71.8642 18.0491 71.6954 18.1426 71.565 18.279C71.4345 18.4141 71.279 18.5225 71.107 18.598C70.5712 18.8822 70.0817 19.246 69.655 19.677C69.5326 19.7957 69.4008 19.9044 69.261 20.002C69.18 20.0663 69.1092 20.1425 69.051 20.228C68.9629 20.3693 68.8333 20.48 68.68 20.545C68.467 20.63 68.444 20.663 68.346 21.027C68.3003 21.2544 68.1883 21.4632 68.024 21.627C67.8884 21.7704 67.7803 21.9375 67.705 22.12C67.664 22.2713 67.5676 22.4016 67.435 22.485C67.219 22.597 67.235 22.554 67.029 23.365C66.9455 23.7029 66.8379 24.0345 66.707 24.357C66.5036 24.8071 66.4038 25.2972 66.415 25.791C66.4533 26.3182 66.3468 26.8459 66.107 27.317C65.9409 27.5848 65.8539 27.894 65.8558 28.2091C65.8578 28.5242 65.9486 28.8323 66.118 29.098C66.3336 29.5748 66.4363 30.095 66.418 30.618C66.3871 31.0682 66.4805 31.5183 66.688 31.919C66.8915 32.3483 67.0264 32.8069 67.088 33.278C67.1167 33.4047 67.1871 33.5181 67.288 33.6C67.5189 33.8239 67.6907 34.1015 67.788 34.408C67.8287 34.5307 67.9041 34.6391 68.005 34.72C68.1151 34.8105 68.2025 34.9256 68.26 35.056C68.3424 35.2208 68.4493 35.3722 68.577 35.505L68.998 35.928L69.335 36.266L69.864 36.805C70.0554 37.0126 70.2781 37.1891 70.524 37.328C70.6677 37.3862 70.7914 37.4848 70.88 37.612C70.9651 37.7383 71.089 37.8335 71.233 37.883C71.4178 37.9622 71.5927 38.0629 71.754 38.183C71.8828 38.285 72.0243 38.3697 72.175 38.435C72.259 38.461 72.512 38.535 72.738 38.602C72.9544 38.6592 73.158 38.7569 73.338 38.89C73.5125 39.0317 73.7267 39.1155 73.951 39.13C74.3624 39.1651 74.7589 39.3004 75.106 39.524C75.436 39.801 75.967 39.849 78.431 39.824C80.731 39.799 80.956 39.776 81.168 39.541C81.4242 39.3272 81.7454 39.2067 82.079 39.199C82.579 39.123 82.889 39.032 82.889 38.961C82.889 38.861 83.294 38.661 83.774 38.52C83.9938 38.4734 84.1994 38.3754 84.374 38.234C84.5079 38.1094 84.6617 38.008 84.829 37.934C85.014 37.848 85.166 37.749 85.166 37.713C85.2459 37.5408 85.383 37.4016 85.554 37.319C86.0137 36.9559 86.4373 36.5494 86.819 36.105C86.9399 35.9937 87.0349 35.8571 87.097 35.705C87.1413 35.5817 87.2184 35.4728 87.32 35.39C87.4835 35.2349 87.5982 35.0354 87.65 34.816C87.6984 34.5981 87.8138 34.4009 87.98 34.252C88.0956 34.1532 88.1847 34.027 88.239 33.885C88.324 33.5266 88.4626 33.1831 88.65 32.866C88.867 32.551 88.933 31.454 88.742 31.351C87.1134 31.256 85.4801 31.2744 83.854 31.406C83.701 31.484 83.671 31.548 83.577 31.991C83.44 32.636 83.377 32.791 83.168 32.934C83.0371 33.0489 82.9298 33.1882 82.852 33.344C82.7895 33.4919 82.6825 33.6166 82.546 33.701C82.3786 33.8028 82.2267 33.928 82.095 34.073C81.9413 34.2737 81.7173 34.4088 81.468 34.451C81.2835 34.4759 81.1126 34.5614 80.982 34.694C80.797 34.902 80.682 34.947 80.064 35.055C79.7711 35.1081 79.4821 35.1809 79.199 35.273C78.5692 35.4583 77.8999 35.4621 77.268 35.284C76.964 35.1802 76.6505 35.1065 76.332 35.064C75.8941 35.0559 75.4688 34.9165 75.111 34.664C74.9637 34.5622 74.799 34.4883 74.625 34.446C74.3854 34.3906 74.1659 34.2698 73.991 34.097C73.858 33.9656 73.7088 33.8517 73.547 33.758C73.4047 33.6769 73.2861 33.5601 73.203 33.419C73.1042 33.262 72.9754 33.1261 72.824 33.019C72.6345 32.8907 72.4898 32.7065 72.41 32.492C72.3305 32.3103 72.224 32.1418 72.094 31.992C71.9809 31.8604 71.8976 31.7059 71.85 31.539C71.7901 31.3366 71.6832 31.1512 71.538 30.998C71.4158 30.8613 71.322 30.7018 71.2619 30.5286C71.2018 30.3554 71.1767 30.172 71.188 29.989C71.1831 29.6447 71.123 29.3033 71.01 28.978C70.8335 28.4574 70.8445 27.8914 71.041 27.378C71.1388 27.1056 71.1895 26.8185 71.191 26.529C71.246 25.737 71.258 25.703 71.566 25.41C71.7201 25.2898 71.8224 25.1152 71.852 24.922C71.8882 24.6308 72.0226 24.3606 72.233 24.156C72.3426 24.0483 72.4254 23.9164 72.475 23.771C72.4987 23.682 72.5396 23.5986 72.5956 23.5255C72.6515 23.4524 72.7213 23.3911 72.801 23.345C72.9308 23.2692 73.0432 23.167 73.131 23.045C73.2204 22.9208 73.3366 22.8183 73.471 22.745C73.609 22.6716 73.7337 22.5756 73.84 22.461C74.0166 22.3024 74.2175 22.1731 74.435 22.078C74.607 22.0102 74.7679 21.9168 74.912 21.801C75.012 21.64 75.261 21.532 75.78 21.433C76.0347 21.3879 76.2842 21.3175 76.525 21.223C77.6474 20.9572 78.8176 20.9678 79.935 21.254C80.192 21.333 80.586 21.444 80.81 21.501C81.0501 21.5454 81.2731 21.6559 81.454 21.82C81.602 21.9518 81.7644 22.0665 81.938 22.162C82.0686 22.2254 82.181 22.3206 82.265 22.439C82.3494 22.5576 82.4622 22.6531 82.593 22.717C82.7296 22.7858 82.8482 22.8859 82.939 23.009C83.0211 23.1363 83.1159 23.2549 83.222 23.363C83.4449 23.6756 83.5921 24.0357 83.652 24.415C83.652 24.453 83.745 24.533 83.858 24.594C83.9887 24.6716 84.1007 24.7771 84.186 24.903L84.308 25.103L86.364 25.086C88.594 25.067 88.723 25.049 88.807 24.747C88.891 24.445 88.866 17.464 88.781 17.347C88.657 17.178 88.261 17.147 86.216 17.147H84.304L84.245 17.337C84.2022 17.4956 84.1704 17.657 84.15 17.82C84.05 18.598 83.677 18.799 83.262 18.295C83.1445 18.1609 82.9958 18.0579 82.829 17.995C82.6451 17.9203 82.4758 17.8137 82.329 17.68C82.0529 17.416 81.6869 17.2666 81.305 17.262C81.0088 17.2076 80.7178 17.1283 80.435 17.025C80.0873 16.8977 79.7227 16.8222 79.353 16.801C78.6503 16.7311 77.9441 16.7008 77.238 16.71V16.699ZM103.481 16.72C102.755 16.7124 102.032 16.8032 101.331 16.99C101.117 17.073 100.897 17.1398 100.673 17.19L99.904 17.35C99.51 17.432 99.436 17.469 99.284 17.658C99.1544 17.815 98.98 17.9288 98.784 17.984C98.615 18.0385 98.4582 18.1251 98.322 18.239C98.1401 18.4171 97.914 18.5435 97.667 18.605C97.619 18.605 97.496 18.705 97.393 18.838C97.3154 18.9444 97.2175 19.0345 97.105 19.103C96.6945 19.4006 96.3158 19.7397 95.975 20.115C95.7909 20.2937 95.6306 20.4954 95.498 20.715C95.4204 20.8638 95.3152 20.9965 95.188 21.106C95.0628 21.2153 94.9608 21.3486 94.888 21.498C94.8292 21.6381 94.7273 21.7558 94.597 21.834C94.458 21.895 94.412 21.978 94.297 22.379C94.214 22.7517 94.0539 23.1029 93.827 23.41C93.7199 23.6039 93.652 23.8169 93.627 24.037C93.535 24.562 93.467 24.71 93.265 24.817C93.104 24.904 93.015 25.191 93.014 25.63C92.9894 26.3549 92.9226 27.0778 92.814 27.795C92.7436 28.103 92.7436 28.423 92.814 28.731C92.859 28.973 92.925 29.644 92.961 30.223C93.044 31.548 93.036 31.513 93.309 31.758C93.3915 31.8225 93.4598 31.9033 93.5096 31.9953C93.5595 32.0874 93.59 32.1887 93.599 32.293C93.6241 32.6116 93.735 32.9174 93.92 33.178C94.06 33.335 94.099 33.432 94.306 34.128C94.391 34.416 94.476 34.592 94.538 34.612C94.6373 34.6651 94.7245 34.738 94.7944 34.8263C94.8642 34.9145 94.9151 35.0162 94.944 35.125C94.9799 35.2532 95.0642 35.3625 95.179 35.43C95.3206 35.5345 95.4374 35.6691 95.521 35.824C95.9385 36.4218 96.4618 36.9383 97.065 37.348C97.1796 37.4276 97.2769 37.5297 97.351 37.648C97.3943 37.7215 97.4521 37.7855 97.5208 37.8361C97.5896 37.8866 97.6679 37.9226 97.751 37.942C97.9298 38.0075 98.0957 38.104 98.241 38.227C98.4108 38.3671 98.6086 38.4693 98.821 38.527C99.1413 38.5977 99.4419 38.7388 99.701 38.94C99.9217 39.0695 100.164 39.1573 100.417 39.199C100.691 39.226 100.951 39.3331 101.164 39.507C101.464 39.795 101.839 39.839 103.93 39.839C105.957 39.839 106.401 39.791 106.705 39.539C107.068 39.3112 107.479 39.1683 107.905 39.121C108.121 39.0849 108.325 38.9959 108.499 38.862C108.708 38.7121 108.947 38.6097 109.199 38.562C109.581 38.462 109.724 38.395 109.799 38.287C110.15 37.752 110.774 38.01 110.852 38.723L110.892 39.087L111.209 39.206C111.516 39.321 111.651 39.325 115.317 39.325H119.088L119.215 39.189C119.411 37.8101 119.413 36.4105 119.221 35.031L119.1 34.877H117.8C116.335 34.877 116.363 34.885 116.159 34.395C116.054 34.143 116.022 22.48 116.125 22.033C116.235 21.555 116.301 21.533 117.818 21.533C119.036 21.533 119.16 21.524 119.248 21.426C119.408 20.0545 119.4 18.6686 119.224 17.299L119.103 17.145H111.508L111.19 17.286L110.871 17.427L110.831 17.769C110.744 18.505 110.276 18.75 109.838 18.29C109.689 18.1512 109.508 18.0512 109.311 17.999C109.094 17.943 108.897 17.8273 108.742 17.665C108.484 17.395 108.381 17.351 107.877 17.296C107.39 17.2424 106.912 17.1316 106.451 16.966C105.476 16.7733 104.482 16.6908 103.488 16.72H103.481ZM139.66 16.799C139.233 16.8078 138.81 16.8751 138.402 16.999C137.932 17.1252 137.455 17.2224 136.973 17.29C136.059 17.424 136.014 17.437 135.802 17.628C135.574 17.8362 135.291 17.975 134.987 18.028C134.809 18.0859 134.644 18.1761 134.499 18.294C134.327 18.4272 134.132 18.5288 133.924 18.594C133.724 18.6533 133.538 18.7519 133.377 18.884C133.007 19.216 132.377 19.317 132.13 19.084C131.991 18.953 131.984 18.917 131.984 18.257C132.014 17.9533 131.98 17.6467 131.884 17.357L131.784 17.15H123.508L123.444 17.334C123.35 18.6992 123.353 20.0693 123.453 21.434C123.517 21.519 123.719 21.534 125.109 21.548C126.909 21.567 126.945 21.575 127.079 22.018C127.138 22.218 127.154 23.526 127.154 28.206V34.145L127.028 34.418C126.804 34.902 126.791 34.905 125.05 34.91H123.526L123.454 35.052C123.353 36.4227 123.351 37.799 123.448 39.17L123.516 39.319H130.162C136.99 39.319 137.383 39.304 137.519 39.119C137.639 37.7761 137.634 36.4251 137.506 35.083C137.421 34.97 137.33 34.965 134.948 34.935C132.197 34.9 132.302 34.917 132.094 34.488C131.978 34.25 131.976 34.137 131.971 29.003C131.971 22.994 131.908 23.558 132.55 23.348C132.732 23.2945 132.905 23.215 133.064 23.112C133.685 22.8025 134.37 22.6442 135.064 22.65C135.336 22.6418 135.604 22.5828 135.854 22.476C136.473 22.2243 137.137 22.1024 137.805 22.118C138.334 22.0858 138.862 22.0263 139.385 21.94C139.707 21.876 140.185 21.809 140.453 21.789L140.936 21.753V16.726L140.687 16.735C140.55 16.735 140.087 16.764 139.658 16.788L139.66 16.799ZM106.048 20.999C106.318 21.0335 106.583 21.1006 106.837 21.199C107.075 21.2972 107.322 21.3754 107.573 21.433C107.894 21.4612 108.196 21.5973 108.429 21.819C108.589 21.9497 108.766 22.0571 108.956 22.138C109.162 22.2208 109.348 22.3482 109.499 22.511C109.555 22.6005 109.642 22.6661 109.744 22.695C110.168 22.9185 110.523 23.2522 110.773 23.661C110.915 25.1983 110.939 26.744 110.846 28.285C110.826 33.185 110.846 32.922 110.415 33.179C110.292 33.2576 110.191 33.3659 110.121 33.494C110.087 33.5665 110.038 33.6308 109.977 33.6826C109.916 33.7344 109.844 33.7724 109.767 33.794C109.618 33.8517 109.486 33.9455 109.383 34.067C109.166 34.2989 108.875 34.449 108.56 34.492C108.438 34.5142 108.326 34.5732 108.238 34.661C108.065 34.88 107.862 34.973 107.352 35.068C107.106 35.1034 106.869 35.1833 106.652 35.304C105.496 35.7344 104.227 35.7464 103.063 35.338C102.839 35.2143 102.597 35.1252 102.346 35.074C101.816 34.959 101.586 34.857 101.502 34.702C101.381 34.59 101.236 34.5075 101.078 34.461C100.838 34.3788 100.621 34.2418 100.444 34.061C100.308 33.9211 100.156 33.7976 99.991 33.693C99.875 33.6243 99.7821 33.5226 99.724 33.401C99.6315 33.2288 99.5142 33.0712 99.376 32.933C99.2145 32.7705 99.09 32.5751 99.011 32.36C98.9708 32.2029 98.8814 32.0628 98.756 31.96C98.526 31.813 98.472 31.723 98.356 31.303C98.3015 31.0967 98.2212 30.8982 98.117 30.712C97.7165 29.1205 97.7165 27.4545 98.117 25.863C98.2265 25.6595 98.3082 25.4422 98.36 25.217C98.3872 24.9675 98.505 24.7366 98.691 24.568C98.7821 24.4943 98.8584 24.404 98.916 24.302C99.0629 23.9994 99.2491 23.7177 99.47 23.464C99.5564 23.3733 99.6283 23.2697 99.683 23.157C99.7772 22.9926 99.9118 22.8549 100.074 22.757C100.205 22.6808 100.323 22.5831 100.422 22.468C100.575 22.3216 100.749 22.1995 100.939 22.106C101.114 22.0232 101.275 21.9132 101.415 21.78C101.595 21.6018 101.826 21.4832 102.076 21.44C102.265 21.3904 102.451 21.3272 102.631 21.251C103.738 20.9217 104.902 20.8371 106.045 21.003L106.048 20.999ZM2.021 39.532C2.021 39.904 2.904 40.348 3.904 40.481C4.6631 40.5649 5.41333 40.7154 6.146 40.931C6.57204 41.0559 7.00648 41.1502 7.446 41.213C7.71231 41.2386 7.97553 41.2899 8.232 41.366C8.37876 41.4285 8.5311 41.4771 8.687 41.511L9.012 41.586L9.364 41.254C9.66407 41.0173 9.90393 40.713 10.064 40.366C10.1518 40.1923 10.2521 40.0252 10.364 39.866L10.502 39.685L10.078 39.592C9.2974 39.4896 8.51007 39.4475 7.723 39.466C6.661 39.448 4.943 39.416 3.905 39.395L2.018 39.356V39.537" fill="#20366C"/>
<path d="M2.021 39.532C2.021 39.904 2.904 40.348 3.904 40.481C4.6631 40.5649 5.41333 40.7154 6.146 40.931C6.57204 41.0559 7.00648 41.1502 7.446 41.213C7.71231 41.2386 7.97553 41.2899 8.232 41.366C8.37876 41.4285 8.5311 41.4771 8.687 41.511L9.012 41.586L9.364 41.254C9.66407 41.0173 9.90393 40.713 10.064 40.366C10.1518 40.1923 10.2521 40.0252 10.364 39.866L10.502 39.685L10.078 39.592C9.2974 39.4896 8.51007 39.4475 7.723 39.466C6.661 39.448 4.943 39.416 3.905 39.395L2.018 39.356V39.537M46.088 0.589001C45.874 0.644001 45.554 0.730001 45.377 0.780001C45.0902 0.851845 44.7926 0.870821 44.499 0.836001C44.17 0.805785 43.8383 0.824998 43.515 0.893001C43.1618 0.955713 42.8037 0.986836 42.445 0.986001C42.1552 0.963394 41.8638 0.995623 41.586 1.081C41.3729 1.15825 41.1534 1.21648 40.93 1.255C40.688 1.299 40.372 1.355 40.23 1.388C40.088 1.421 39.598 1.46 39.147 1.482C38.17 1.53 37.973 1.573 37.72 1.799C37.6423 1.87113 37.5504 1.92619 37.4502 1.96063C37.3499 1.99508 37.2436 2.00815 37.138 1.999C36.6346 2.05352 36.1452 2.19815 35.693 2.426C35.0368 2.65806 34.3502 2.79282 33.655 2.826C33.123 2.864 33.055 2.882 32.826 3.058C32.6566 3.19365 32.4503 3.27519 32.234 3.292C31.9427 3.30327 31.6654 3.42022 31.454 3.621C31.259 3.76066 31.0268 3.839 30.787 3.846C30.5195 3.87337 30.2602 3.95359 30.024 4.082C29.7602 4.21859 29.4864 4.33492 29.205 4.43C28.912 4.49807 28.6452 4.6499 28.437 4.867C28.2403 5.08541 27.9694 5.22296 27.677 5.253C27.5563 5.29661 27.4419 5.35613 27.337 5.43C27.1319 5.55363 26.918 5.66193 26.697 5.754C26.4906 5.83902 26.2949 5.9481 26.114 6.079C25.9688 6.19148 25.8119 6.28804 25.646 6.367C25.459 6.46472 25.2883 6.59089 25.14 6.741C25.0184 6.87307 24.8682 6.97567 24.701 7.041C24.4532 7.09182 24.2252 7.21259 24.044 7.389C23.9432 7.49399 23.8221 7.57735 23.688 7.634C23.4995 7.73209 23.3302 7.86316 23.188 8.021C23.0703 8.16126 22.9279 8.27885 22.768 8.368C22.5744 8.47921 22.3933 8.61097 22.228 8.761C21.656 9.28 21.471 9.44 21.238 9.616C20.7817 9.98035 20.3714 10.3987 20.016 10.862C19.8241 11.1349 19.6161 11.396 19.393 11.644C19.1804 11.8767 18.9864 12.1258 18.813 12.389C18.7217 12.5444 18.6089 12.6861 18.478 12.81C18.3493 12.9345 18.2472 13.0838 18.178 13.249C18.1207 13.4012 18.0441 13.5454 17.95 13.678C17.8279 13.8711 17.7273 14.077 17.65 14.292C17.5514 14.5473 17.4271 14.7919 17.279 15.022C17.1604 15.1936 17.0659 15.3807 16.998 15.578C16.962 15.711 16.898 15.927 16.851 16.057C16.7667 16.524 16.7391 16.9994 16.769 17.473C16.769 18.998 16.869 19.454 17.297 20.005C17.4093 20.1528 17.5096 20.3093 17.597 20.473C17.8613 20.9104 18.1997 21.2985 18.597 21.62C18.7429 21.71 18.8799 21.8138 19.006 21.93L19.553 22.425C19.7443 22.5927 19.9619 22.7279 20.197 22.825C20.4445 22.9273 20.6816 23.0532 20.905 23.201C21.1224 23.346 21.3535 23.4693 21.595 23.569C21.8166 23.658 22.029 23.7685 22.229 23.899C22.4802 24.0503 22.7488 24.1705 23.029 24.257C23.282 24.3321 23.5279 24.4291 23.764 24.547C24.0258 24.6648 24.3008 24.7511 24.583 24.804C24.924 24.8739 25.2563 24.9809 25.574 25.123C25.8339 25.2434 26.1071 25.3327 26.388 25.389C26.7134 25.4119 27.0266 25.5217 27.295 25.707C27.4846 25.8132 27.6932 25.8812 27.909 25.907C28.134 25.942 28.503 26.021 28.728 26.083C29.0153 26.1566 29.3064 26.2147 29.6 26.257C29.7795 26.2733 29.9564 26.3109 30.127 26.369C30.4981 26.5369 30.8958 26.6385 31.302 26.669C31.7855 26.6876 32.2565 26.8283 32.671 27.078C32.7838 27.1627 32.9133 27.2223 33.051 27.253C33.2303 27.2696 33.4083 27.2976 33.584 27.337C33.809 27.383 34.184 27.45 34.42 27.484C34.661 27.5203 34.8962 27.5876 35.12 27.684C35.6508 27.9197 36.2286 28.0305 36.809 28.008C36.9906 28.0406 37.1599 28.1218 37.299 28.243C37.471 28.3889 37.6814 28.4823 37.905 28.512C38.2896 28.5807 38.6563 28.7267 38.983 28.941C39.191 29.053 39.4102 29.1429 39.637 29.209C39.8767 29.2799 40.1065 29.3807 40.321 29.509C40.3962 29.5734 40.4836 29.6221 40.578 29.652C40.9503 29.9437 41.2878 30.2772 41.584 30.646C41.6756 30.8976 41.696 31.1697 41.6431 31.4322C41.5902 31.6947 41.4659 31.9375 41.284 32.134C41.2113 32.2033 41.1664 32.2969 41.158 32.397C41.1567 32.6922 41.043 32.9758 40.84 33.19C40.7255 33.2986 40.6248 33.4209 40.54 33.554C40.4621 33.6745 40.3565 33.7746 40.232 33.846C40.0928 33.9257 39.9638 34.022 39.848 34.133C39.6806 34.2725 39.4872 34.3776 39.279 34.442C39.0754 34.5016 38.8869 34.6039 38.726 34.742C38.5645 34.8852 38.37 34.9862 38.16 35.036C37.9495 35.0966 37.7507 35.1922 37.572 35.319C37.3518 35.5237 37.0752 35.6575 36.778 35.703C36.5658 35.7583 36.3635 35.846 36.178 35.963C35.9957 36.0803 35.7916 36.1599 35.578 36.197C34.778 36.35 34.51 36.441 34.302 36.638C34.152 36.7664 33.9794 36.8657 33.793 36.931C33.7054 36.9499 33.6224 36.9862 33.5491 37.0377C33.4757 37.0893 33.4135 37.155 33.366 37.231C33.2357 37.4103 33.0468 37.5383 32.832 37.593C32.547 37.707 32.404 37.798 32.367 37.893C32.2541 38.108 32.1289 38.3164 31.992 38.517C31.8684 38.6902 31.7603 38.8739 31.669 39.066C31.5859 39.3669 31.4393 39.6466 31.239 39.886C31.1126 40.0398 31.0042 40.2076 30.916 40.386C30.8482 40.5331 30.748 40.663 30.623 40.766C30.523 40.838 30.44 40.933 30.44 40.978C30.3691 41.315 30.2273 41.6331 30.024 41.911C29.868 42.1374 29.7498 42.3877 29.674 42.652C29.6044 42.8887 29.5035 43.115 29.374 43.325L29.257 43.451L29.557 43.551C29.926 43.647 30.3104 43.6691 30.688 43.616C31.145 43.597 32.059 43.561 32.719 43.536C33.194 43.57 33.6712 43.5202 34.129 43.389C34.4115 43.2904 34.7079 43.2378 35.007 43.233C35.386 43.203 35.893 43.151 36.135 43.117C36.377 43.083 37.115 43.036 37.777 43.011C38.977 42.967 38.977 42.967 39.336 42.781C39.8566 42.547 40.416 42.4114 40.986 42.381C41.1928 42.3628 41.3981 42.3293 41.6 42.281C41.7794 42.2362 41.9614 42.2028 42.145 42.181C42.3643 42.1487 42.5785 42.0879 42.782 42C43.2142 41.8511 43.6647 41.7619 44.121 41.735C45.08 41.615 45.215 41.584 45.46 41.429C45.6291 41.3264 45.8149 41.2543 46.009 41.216C46.4436 41.1338 46.8688 41.0078 47.278 40.84C47.6522 40.6582 48.0506 40.5312 48.461 40.463C48.7824 40.4053 49.0926 40.297 49.38 40.142C49.7321 39.9388 50.1287 39.8248 50.535 39.81C50.846 39.776 51.113 39.627 51.113 39.487C51.113 39.417 51.396 39.271 51.801 39.132C51.9855 39.0667 52.1584 38.9721 52.313 38.852C52.5857 38.6552 52.9002 38.5241 53.232 38.469C53.3423 38.4366 53.4429 38.3775 53.525 38.297C53.6927 38.1592 53.8748 38.0399 54.068 37.941C54.2729 37.8352 54.4637 37.7042 54.636 37.551C54.762 37.4308 54.9078 37.3334 55.067 37.263C55.2128 37.202 55.3447 37.1122 55.455 36.999C55.553 36.8919 55.6691 36.8028 55.798 36.736C55.9339 36.6635 56.0545 36.5654 56.153 36.447C56.2865 36.2974 56.4395 36.1666 56.608 36.058C56.9971 35.7799 57.3564 35.4622 57.68 35.11L58.111 34.671C58.2832 34.4941 58.4361 34.2993 58.567 34.09C58.6533 33.9393 58.7642 33.8041 58.895 33.69C59.0269 33.5691 59.1336 33.4233 59.209 33.261C59.2641 33.0979 59.3802 32.9624 59.533 32.883C59.672 32.825 59.728 32.753 59.776 32.567C59.8639 32.2049 60.0012 31.8567 60.184 31.532C60.2892 31.3455 60.3727 31.1475 60.433 30.942C60.541 30.596 60.604 30.488 60.752 30.394C60.991 30.243 60.99 30.245 61.088 29.346C61.1118 28.9328 61.2013 28.5261 61.353 28.141C61.597 27.553 61.653 27.01 61.478 26.917C61.303 26.824 61.178 26.542 61.114 26.1C61.033 25.5 60.943 25.229 60.791 25.129C60.5918 24.9449 60.4525 24.7052 60.391 24.441C60.0709 23.8835 59.6392 23.3981 59.123 23.015C58.937 22.901 58.7685 22.7605 58.623 22.598C58.5282 22.4785 58.4084 22.3812 58.272 22.313C58.1452 22.2529 58.0337 22.1646 57.946 22.055C57.8539 21.9369 57.7246 21.8533 57.579 21.818C57.266 21.7762 56.9717 21.6446 56.732 21.439C56.62 21.3354 56.4884 21.2551 56.345 21.203C56.0493 21.1295 55.7779 20.9799 55.558 20.769C55.4832 20.6765 55.3898 20.6008 55.2838 20.5467C55.1779 20.4926 55.0618 20.4614 54.943 20.455C54.6449 20.4314 54.3581 20.3304 54.111 20.162C53.9007 20.0352 53.6658 19.9548 53.422 19.926C53.0015 19.8761 52.5997 19.7236 52.252 19.482C52.144 19.382 51.962 19.331 50.982 19.132C50.7867 19.0934 50.602 19.0136 50.44 18.898C50.2756 18.7696 50.0745 18.6971 49.866 18.691C49.1986 18.6296 48.542 18.4814 47.913 18.25C47.6222 18.1265 47.3177 18.0382 47.006 17.987C46.5981 17.969 46.2019 17.8445 45.857 17.626C45.596 17.426 45.414 17.384 44.528 17.284C44.0117 17.2704 43.5036 17.1513 43.035 16.934C42.7807 16.8356 42.5154 16.7685 42.245 16.734C41.7986 16.7072 41.3709 16.545 41.019 16.269C40.9049 16.2055 40.7796 16.1644 40.65 16.148C40.1793 16.0695 39.7229 15.9212 39.296 15.708C39.0931 15.5968 38.8776 15.5105 38.654 15.451C38.3464 15.4052 38.0624 15.2594 37.846 15.036C37.7501 14.9464 37.6363 14.8782 37.512 14.836C37.4249 14.8097 37.3443 14.7654 37.2754 14.706C37.2065 14.6465 37.1508 14.5733 37.112 14.491C37.0228 14.3215 36.8775 14.1883 36.701 14.114C36.5459 14.0496 36.4151 13.9379 36.327 13.795C36.2671 13.6818 36.1875 13.5803 36.092 13.495C35.88 13.1009 35.77 12.6601 35.7719 12.2126C35.7739 11.7651 35.8877 11.3253 36.103 10.933C36.2288 10.7696 36.3253 10.5855 36.388 10.389C36.4402 10.1948 36.5438 10.0182 36.688 9.878C36.8435 9.71054 36.972 9.51993 37.069 9.313C37.1476 9.128 37.2649 8.96196 37.413 8.826C37.5231 8.74912 37.6167 8.65083 37.688 8.537C37.7635 8.41862 37.8755 8.32805 38.007 8.279C38.0924 8.24881 38.17 8.19966 38.2337 8.13523C38.2974 8.0708 38.3457 7.99277 38.375 7.907C38.4421 7.74482 38.5614 7.60968 38.714 7.523C38.8346 7.45634 38.9375 7.36169 39.014 7.247C39.0971 7.12762 39.208 7.03017 39.337 6.963C39.519 6.85993 39.6917 6.74114 39.853 6.608C40.0213 6.47046 40.2077 6.35673 40.407 6.27C40.5699 6.20475 40.7189 6.10904 40.846 5.988C41.0273 5.82813 41.2433 5.71274 41.477 5.651C41.6996 5.58077 41.9113 5.4798 42.106 5.351C42.2946 5.22548 42.5088 5.1435 42.733 5.111C43.524 4.946 43.672 4.896 43.812 4.747C44.012 4.529 44.198 4.453 44.76 4.356C45.0039 4.33757 45.239 4.25701 45.443 4.122C45.688 3.916 46.233 3.812 47.81 3.672C48.2094 3.65667 48.6041 3.57977 48.98 3.444C49.7093 3.20308 50.4754 3.09306 51.243 3.119C51.897 3.074 52.656 3.011 52.929 2.979C55.4643 2.70431 58.0181 2.64076 60.564 2.789C60.982 2.831 61.786 2.889 62.349 2.914C62.912 2.939 63.531 2.993 63.724 3.03C63.917 3.067 64.615 3.118 65.275 3.144C66.651 3.198 66.796 3.234 66.796 3.52C66.796 3.996 67.601 4.114 67.982 3.694C68.151 3.508 67.569 3.21 67.038 3.21C66.957 3.21 66.904 3.162 66.88 3.065C66.841 2.911 66.853 2.915 66.065 2.797C65.5961 2.74507 65.1387 2.61706 64.711 2.418C64.5795 2.34414 64.436 2.29436 64.287 2.271C63.7481 2.21772 63.2218 2.07475 62.73 1.848C62.1069 1.58634 61.4378 1.45203 60.762 1.453C60.5185 1.44373 60.2762 1.41328 60.038 1.362C59.813 1.312 59.468 1.25 59.272 1.223C59.1036 1.20401 58.9383 1.16369 58.78 1.103C58.5439 1.03449 58.3006 0.993876 58.055 0.982001C57.73 0.955001 57.213 0.906001 56.908 0.872001C56.603 0.838001 56.07 0.811001 55.725 0.811001C55.43 0.819776 55.135 0.791556 54.847 0.727001C54.247 0.527001 53.937 0.513001 50.212 0.501001C48.8374 0.412026 47.4576 0.441468 46.088 0.589001V0.589001ZM77.238 16.699C77.174 16.712 76.713 16.749 76.214 16.782C75.7831 16.7754 75.3545 16.8452 74.948 16.988C74.5526 17.1161 74.1472 17.2108 73.736 17.271L72.882 17.408L72.661 17.647C72.4973 17.8259 72.2844 17.9526 72.049 18.011C71.8642 18.0491 71.6954 18.1426 71.565 18.279C71.4345 18.4141 71.279 18.5225 71.107 18.598C70.5712 18.8822 70.0817 19.246 69.655 19.677C69.5326 19.7957 69.4008 19.9044 69.261 20.002C69.18 20.0663 69.1092 20.1425 69.051 20.228C68.9629 20.3693 68.8333 20.48 68.68 20.545C68.467 20.63 68.444 20.663 68.346 21.027C68.3003 21.2544 68.1883 21.4632 68.024 21.627C67.8884 21.7704 67.7803 21.9375 67.705 22.12C67.664 22.2713 67.5676 22.4016 67.435 22.485C67.219 22.597 67.235 22.554 67.029 23.365C66.9455 23.7029 66.8379 24.0345 66.707 24.357C66.5036 24.8071 66.4038 25.2972 66.415 25.791C66.4533 26.3182 66.3468 26.8459 66.107 27.317C65.9409 27.5848 65.8539 27.894 65.8558 28.2091C65.8578 28.5242 65.9486 28.8323 66.118 29.098C66.3336 29.5748 66.4363 30.095 66.418 30.618C66.3871 31.0682 66.4805 31.5183 66.688 31.919C66.8915 32.3483 67.0264 32.8069 67.088 33.278C67.1167 33.4047 67.1871 33.5181 67.288 33.6C67.5189 33.8239 67.6907 34.1015 67.788 34.408C67.8287 34.5307 67.9041 34.6391 68.005 34.72C68.1151 34.8105 68.2025 34.9256 68.26 35.056C68.3424 35.2208 68.4493 35.3722 68.577 35.505L68.998 35.928L69.335 36.266L69.864 36.805C70.0554 37.0126 70.2781 37.1891 70.524 37.328C70.6677 37.3862 70.7914 37.4848 70.88 37.612C70.9651 37.7383 71.089 37.8335 71.233 37.883C71.4178 37.9622 71.5927 38.0629 71.754 38.183C71.8828 38.285 72.0243 38.3697 72.175 38.435C72.259 38.461 72.512 38.535 72.738 38.602C72.9544 38.6592 73.158 38.7569 73.338 38.89C73.5125 39.0317 73.7267 39.1155 73.951 39.13C74.3624 39.1651 74.7589 39.3004 75.106 39.524C75.436 39.801 75.967 39.849 78.431 39.824C80.731 39.799 80.956 39.776 81.168 39.541C81.4242 39.3272 81.7454 39.2067 82.079 39.199C82.579 39.123 82.889 39.032 82.889 38.961C82.889 38.861 83.294 38.661 83.774 38.52C83.9938 38.4734 84.1994 38.3754 84.374 38.234C84.5079 38.1094 84.6617 38.008 84.829 37.934C85.014 37.848 85.166 37.749 85.166 37.713C85.2459 37.5408 85.383 37.4016 85.554 37.319C86.0137 36.9559 86.4373 36.5494 86.819 36.105C86.9399 35.9937 87.0349 35.8571 87.097 35.705C87.1413 35.5817 87.2184 35.4728 87.32 35.39C87.4835 35.2349 87.5982 35.0354 87.65 34.816C87.6984 34.5981 87.8138 34.4009 87.98 34.252C88.0956 34.1532 88.1847 34.027 88.239 33.885C88.324 33.5266 88.4626 33.1831 88.65 32.866C88.867 32.551 88.933 31.454 88.742 31.351C87.1134 31.256 85.4801 31.2744 83.854 31.406C83.701 31.484 83.671 31.548 83.577 31.991C83.44 32.636 83.377 32.791 83.168 32.934C83.0371 33.0489 82.9298 33.1882 82.852 33.344C82.7895 33.4919 82.6825 33.6166 82.546 33.701C82.3786 33.8028 82.2267 33.928 82.095 34.073C81.9413 34.2737 81.7173 34.4088 81.468 34.451C81.2835 34.4759 81.1126 34.5614 80.982 34.694C80.797 34.902 80.682 34.947 80.064 35.055C79.7711 35.1081 79.4821 35.1809 79.199 35.273C78.5692 35.4583 77.8999 35.4621 77.268 35.284C76.964 35.1802 76.6505 35.1065 76.332 35.064C75.8941 35.0559 75.4688 34.9165 75.111 34.664C74.9637 34.5622 74.799 34.4883 74.625 34.446C74.3854 34.3906 74.1659 34.2698 73.991 34.097C73.858 33.9656 73.7088 33.8517 73.547 33.758C73.4047 33.6769 73.2861 33.5601 73.203 33.419C73.1042 33.262 72.9754 33.1261 72.824 33.019C72.6345 32.8907 72.4898 32.7065 72.41 32.492C72.3305 32.3103 72.224 32.1418 72.094 31.992C71.9809 31.8604 71.8976 31.7059 71.85 31.539C71.7901 31.3366 71.6832 31.1512 71.538 30.998C71.4158 30.8613 71.322 30.7018 71.2619 30.5286C71.2018 30.3554 71.1767 30.172 71.188 29.989C71.1831 29.6447 71.123 29.3033 71.01 28.978C70.8335 28.4574 70.8445 27.8914 71.041 27.378C71.1388 27.1056 71.1895 26.8185 71.191 26.529C71.246 25.737 71.258 25.703 71.566 25.41C71.7201 25.2898 71.8224 25.1152 71.852 24.922C71.8882 24.6308 72.0226 24.3606 72.233 24.156C72.3426 24.0483 72.4254 23.9164 72.475 23.771C72.4987 23.682 72.5396 23.5986 72.5956 23.5255C72.6515 23.4524 72.7213 23.3911 72.801 23.345C72.9308 23.2692 73.0432 23.167 73.131 23.045C73.2204 22.9208 73.3366 22.8183 73.471 22.745C73.609 22.6716 73.7337 22.5756 73.84 22.461C74.0166 22.3024 74.2175 22.1731 74.435 22.078C74.607 22.0102 74.7679 21.9168 74.912 21.801C75.012 21.64 75.261 21.532 75.78 21.433C76.0347 21.3879 76.2842 21.3175 76.525 21.223C77.6474 20.9572 78.8176 20.9678 79.935 21.254C80.192 21.333 80.586 21.444 80.81 21.501C81.0501 21.5454 81.2731 21.6559 81.454 21.82C81.602 21.9518 81.7644 22.0665 81.938 22.162C82.0686 22.2254 82.181 22.3206 82.265 22.439C82.3494 22.5576 82.4622 22.6531 82.593 22.717C82.7296 22.7858 82.8482 22.8859 82.939 23.009C83.0211 23.1363 83.1159 23.2549 83.222 23.363C83.4449 23.6756 83.5921 24.0357 83.652 24.415C83.652 24.453 83.745 24.533 83.858 24.594C83.9887 24.6716 84.1007 24.7771 84.186 24.903L84.308 25.103L86.364 25.086C88.594 25.067 88.723 25.049 88.807 24.747C88.891 24.445 88.866 17.464 88.781 17.347C88.657 17.178 88.261 17.147 86.216 17.147H84.304L84.245 17.337C84.2022 17.4956 84.1704 17.657 84.15 17.82C84.05 18.598 83.677 18.799 83.262 18.295C83.1445 18.1609 82.9958 18.0579 82.829 17.995C82.6451 17.9203 82.4758 17.8137 82.329 17.68C82.0529 17.416 81.6869 17.2666 81.305 17.262C81.0088 17.2076 80.7178 17.1283 80.435 17.025C80.0873 16.8977 79.7227 16.8222 79.353 16.801C78.6503 16.7311 77.9441 16.7008 77.238 16.71V16.699ZM103.481 16.72C102.755 16.7124 102.032 16.8032 101.331 16.99C101.117 17.073 100.897 17.1398 100.673 17.19L99.904 17.35C99.51 17.432 99.436 17.469 99.284 17.658C99.1544 17.815 98.98 17.9288 98.784 17.984C98.615 18.0385 98.4582 18.1251 98.322 18.239C98.1401 18.4171 97.914 18.5435 97.667 18.605C97.619 18.605 97.496 18.705 97.393 18.838C97.3154 18.9444 97.2175 19.0345 97.105 19.103C96.6945 19.4006 96.3158 19.7397 95.975 20.115C95.7909 20.2937 95.6306 20.4954 95.498 20.715C95.4204 20.8638 95.3152 20.9965 95.188 21.106C95.0628 21.2153 94.9608 21.3486 94.888 21.498C94.8292 21.6381 94.7273 21.7558 94.597 21.834C94.458 21.895 94.412 21.978 94.297 22.379C94.214 22.7517 94.0539 23.1029 93.827 23.41C93.7199 23.6039 93.652 23.8169 93.627 24.037C93.535 24.562 93.467 24.71 93.265 24.817C93.104 24.904 93.015 25.191 93.014 25.63C92.9894 26.3549 92.9226 27.0778 92.814 27.795C92.7436 28.103 92.7436 28.423 92.814 28.731C92.859 28.973 92.925 29.644 92.961 30.223C93.044 31.548 93.036 31.513 93.309 31.758C93.3915 31.8225 93.4598 31.9033 93.5096 31.9953C93.5595 32.0874 93.59 32.1887 93.599 32.293C93.6241 32.6116 93.735 32.9174 93.92 33.178C94.06 33.335 94.099 33.432 94.306 34.128C94.391 34.416 94.476 34.592 94.538 34.612C94.6373 34.6651 94.7245 34.738 94.7944 34.8263C94.8642 34.9145 94.9151 35.0162 94.944 35.125C94.9799 35.2532 95.0642 35.3625 95.179 35.43C95.3206 35.5345 95.4374 35.6691 95.521 35.824C95.9385 36.4218 96.4618 36.9383 97.065 37.348C97.1796 37.4276 97.2769 37.5297 97.351 37.648C97.3943 37.7215 97.4521 37.7855 97.5208 37.8361C97.5896 37.8866 97.6679 37.9226 97.751 37.942C97.9298 38.0075 98.0957 38.104 98.241 38.227C98.4108 38.3671 98.6086 38.4693 98.821 38.527C99.1413 38.5977 99.4419 38.7388 99.701 38.94C99.9217 39.0695 100.164 39.1573 100.417 39.199C100.691 39.226 100.951 39.3331 101.164 39.507C101.464 39.795 101.839 39.839 103.93 39.839C105.957 39.839 106.401 39.791 106.705 39.539C107.068 39.3112 107.479 39.1683 107.905 39.121C108.121 39.0849 108.325 38.9959 108.499 38.862C108.708 38.7121 108.947 38.6097 109.199 38.562C109.581 38.462 109.724 38.395 109.799 38.287C110.15 37.752 110.774 38.01 110.852 38.723L110.892 39.087L111.209 39.206C111.516 39.321 111.651 39.325 115.317 39.325H119.088L119.215 39.189C119.411 37.8101 119.413 36.4105 119.221 35.031L119.1 34.877H117.8C116.335 34.877 116.363 34.885 116.159 34.395C116.054 34.143 116.022 22.48 116.125 22.033C116.235 21.555 116.301 21.533 117.818 21.533C119.036 21.533 119.16 21.524 119.248 21.426C119.408 20.0545 119.4 18.6686 119.224 17.299L119.103 17.145H111.508L111.19 17.286L110.871 17.427L110.831 17.769C110.744 18.505 110.276 18.75 109.838 18.29C109.689 18.1512 109.508 18.0512 109.311 17.999C109.094 17.943 108.897 17.8273 108.742 17.665C108.484 17.395 108.381 17.351 107.877 17.296C107.39 17.2424 106.912 17.1316 106.451 16.966C105.476 16.7733 104.482 16.6908 103.488 16.72H103.481ZM139.66 16.799C139.233 16.8078 138.81 16.8751 138.402 16.999C137.932 17.1252 137.455 17.2224 136.973 17.29C136.059 17.424 136.014 17.437 135.802 17.628C135.574 17.8362 135.291 17.975 134.987 18.028C134.809 18.0859 134.644 18.1761 134.499 18.294C134.327 18.4272 134.132 18.5288 133.924 18.594C133.724 18.6533 133.538 18.7519 133.377 18.884C133.007 19.216 132.377 19.317 132.13 19.084C131.991 18.953 131.984 18.917 131.984 18.257C132.014 17.9533 131.98 17.6467 131.884 17.357L131.784 17.15H123.508L123.444 17.334C123.35 18.6992 123.353 20.0693 123.453 21.434C123.517 21.519 123.719 21.534 125.109 21.548C126.909 21.567 126.945 21.575 127.079 22.018C127.138 22.218 127.154 23.526 127.154 28.206V34.145L127.028 34.418C126.804 34.902 126.791 34.905 125.05 34.91H123.526L123.454 35.052C123.353 36.4227 123.351 37.799 123.448 39.17L123.516 39.319H130.162C136.99 39.319 137.383 39.304 137.519 39.119C137.639 37.7761 137.634 36.4251 137.506 35.083C137.421 34.97 137.33 34.965 134.948 34.935C132.197 34.9 132.302 34.917 132.094 34.488C131.978 34.25 131.976 34.137 131.971 29.003C131.971 22.994 131.908 23.558 132.55 23.348C132.732 23.2945 132.905 23.215 133.064 23.112C133.685 22.8025 134.37 22.6442 135.064 22.65C135.336 22.6418 135.604 22.5828 135.854 22.476C136.473 22.2243 137.137 22.1024 137.805 22.118C138.334 22.0858 138.862 22.0263 139.385 21.94C139.707 21.876 140.185 21.809 140.453 21.789L140.936 21.753V16.726L140.687 16.735C140.55 16.735 140.087 16.764 139.658 16.788L139.66 16.799ZM106.048 20.999C106.318 21.0335 106.583 21.1006 106.837 21.199C107.075 21.2972 107.322 21.3754 107.573 21.433C107.894 21.4612 108.196 21.5973 108.429 21.819C108.589 21.9497 108.766 22.0571 108.956 22.138C109.162 22.2208 109.348 22.3482 109.499 22.511C109.555 22.6005 109.642 22.6661 109.744 22.695C110.168 22.9185 110.523 23.2522 110.773 23.661C110.915 25.1983 110.939 26.744 110.846 28.285C110.826 33.185 110.846 32.922 110.415 33.179C110.292 33.2576 110.191 33.3659 110.121 33.494C110.087 33.5665 110.038 33.6308 109.977 33.6826C109.916 33.7344 109.844 33.7724 109.767 33.794C109.618 33.8517 109.486 33.9455 109.383 34.067C109.166 34.2989 108.875 34.449 108.56 34.492C108.438 34.5142 108.326 34.5732 108.238 34.661C108.065 34.88 107.862 34.973 107.352 35.068C107.106 35.1034 106.869 35.1833 106.652 35.304C105.496 35.7344 104.227 35.7464 103.063 35.338C102.839 35.2143 102.597 35.1252 102.346 35.074C101.816 34.959 101.586 34.857 101.502 34.702C101.381 34.59 101.236 34.5075 101.078 34.461C100.838 34.3788 100.621 34.2418 100.444 34.061C100.308 33.9211 100.156 33.7976 99.991 33.693C99.875 33.6243 99.7821 33.5226 99.724 33.401C99.6315 33.2288 99.5142 33.0712 99.376 32.933C99.2145 32.7705 99.09 32.5751 99.011 32.36C98.9708 32.2029 98.8814 32.0628 98.756 31.96C98.526 31.813 98.472 31.723 98.356 31.303C98.3015 31.0967 98.2212 30.8982 98.117 30.712C97.7165 29.1205 97.7165 27.4545 98.117 25.863C98.2265 25.6595 98.3082 25.4422 98.36 25.217C98.3872 24.9675 98.505 24.7366 98.691 24.568C98.7821 24.4943 98.8584 24.404 98.916 24.302C99.0629 23.9994 99.2491 23.7177 99.47 23.464C99.5564 23.3733 99.6283 23.2697 99.683 23.157C99.7772 22.9926 99.9118 22.8549 100.074 22.757C100.205 22.6808 100.323 22.5831 100.422 22.468C100.575 22.3216 100.749 22.1995 100.939 22.106C101.114 22.0232 101.275 21.9132 101.415 21.78C101.595 21.6018 101.826 21.4832 102.076 21.44C102.265 21.3904 102.451 21.3272 102.631 21.251C103.738 20.9217 104.902 20.8371 106.045 21.003L106.048 20.999Z" stroke="#20366C"/>
<path fill-rule="evenodd" clip-rule="evenodd" d="M66.589 3.77C66.3411 3.87976 66.0878 3.97688 65.83 4.061C65.508 4.169 65.096 4.309 64.915 4.373C64.6106 4.46438 64.3001 4.53455 63.986 4.583C63.5605 4.61395 63.1532 4.76824 62.814 5.027C62.5853 5.14653 62.3376 5.22569 62.082 5.261C61.7395 5.32689 61.4061 5.43365 61.089 5.579C60.7619 5.72999 60.4162 5.83692 60.061 5.897C59.6653 5.92404 59.2824 6.04801 58.946 6.258C58.7065 6.37671 58.4532 6.46538 58.192 6.522C57.8963 6.58051 57.6128 6.68943 57.354 6.844C57.0752 7.00735 56.771 7.12294 56.454 7.186C56.1634 7.25225 55.8803 7.34774 55.609 7.471C55.3591 7.58696 55.0977 7.67613 54.829 7.737C54.085 7.922 53.983 7.963 53.81 8.149C53.6204 8.29585 53.4004 8.39836 53.166 8.449C52.9028 8.52666 52.6492 8.63366 52.41 8.768C52.2089 8.88424 51.992 8.97049 51.766 9.024C51.3781 9.07115 51.0053 9.20292 50.674 9.41C50.4845 9.53775 50.2782 9.6387 50.061 9.71C49.8302 9.78732 49.6104 9.89421 49.407 10.028C49.1955 10.1608 48.9658 10.2618 48.725 10.328C48.4786 10.3981 48.2397 10.4926 48.012 10.61C47.7365 10.7773 47.4351 10.8972 47.12 10.965C46.93 11.0185 46.7514 11.1063 46.593 11.224C46.3507 11.4306 46.066 11.5814 45.759 11.666C45.5877 11.7253 45.4268 11.811 45.282 11.92C45.0908 12.0517 44.8803 12.153 44.658 12.22C44.3915 12.3064 44.1361 12.4239 43.897 12.57C43.7081 12.6908 43.507 12.7914 43.297 12.87C43.1086 12.9423 42.9312 13.0406 42.77 13.162C42.5773 13.3026 42.3744 13.4286 42.163 13.539C41.801 13.72 41.805 13.728 42.382 13.948C42.6001 14.0279 42.8066 14.1365 42.996 14.271C43.196 14.445 43.427 14.513 44.274 14.649C44.5944 14.7009 44.9101 14.7785 45.218 14.881C45.6381 15.0075 46.0665 15.1047 46.5 15.172C46.9512 15.2223 47.3922 15.3407 47.808 15.523C48.1918 15.726 48.6179 15.836 49.052 15.844C49.2733 15.8839 49.5011 15.8678 49.7146 15.7971C49.928 15.7263 50.1204 15.6032 50.274 15.439C50.3876 15.3181 50.5204 15.2167 50.667 15.139C50.8069 15.0667 50.9372 14.9774 51.055 14.873C51.1871 14.7539 51.3274 14.6443 51.475 14.545C51.8858 14.2591 52.2807 13.9509 52.658 13.622C52.8241 13.4819 53.0048 13.3602 53.197 13.259C53.3227 13.2058 53.4355 13.1263 53.528 13.026C53.6302 12.9152 53.7523 12.8246 53.888 12.759C54.0834 12.645 54.2664 12.5109 54.434 12.359C54.5895 12.2192 54.7635 12.1015 54.951 12.009C55.0998 11.9425 55.2377 11.8538 55.36 11.746C55.4627 11.6493 55.5789 11.5682 55.705 11.505C55.8851 11.401 56.0529 11.2769 56.205 11.135C56.3926 10.9701 56.5986 10.8275 56.819 10.71C56.9861 10.6299 57.1413 10.5269 57.28 10.404C57.4013 10.2944 57.5398 10.2056 57.69 10.141C57.8991 10.0397 58.0971 9.91703 58.281 9.775C58.4509 9.64159 58.6311 9.52188 58.82 9.417C58.9365 9.362 59.0391 9.28132 59.12 9.181C59.2411 9.05776 59.3861 8.96045 59.546 8.895C59.7266 8.81293 59.8981 8.7124 60.058 8.595C60.2534 8.42404 60.4886 8.30474 60.742 8.248C60.9182 8.19965 61.072 8.09145 61.177 7.942C61.2859 7.8061 61.4222 7.69468 61.577 7.615C61.7539 7.5291 61.9214 7.42522 62.077 7.305C62.2722 7.16296 62.4841 7.04541 62.708 6.955C62.8655 6.90178 63.0136 6.82417 63.147 6.725C63.3784 6.5359 63.6396 6.38654 63.92 6.283C64.0615 6.21813 64.1902 6.12837 64.3 6.018C64.4829 5.86202 64.6891 5.7355 64.911 5.643C65.0887 5.57641 65.2568 5.48663 65.411 5.376C65.5482 5.27647 65.7005 5.1995 65.862 5.148C66.1638 5.08593 66.437 4.92684 66.64 4.695C66.7712 4.56073 66.9312 4.45813 67.108 4.395C67.508 4.255 67.639 4.021 67.351 3.971C67.2101 3.93995 67.0751 3.88661 66.951 3.813C66.762 3.696 66.736 3.694 66.575 3.778L66.589 3.77ZM21.329 28.076C21.1299 28.1327 20.9523 28.2477 20.819 28.406C20.661 28.564 20.392 28.819 20.219 28.972C20.046 29.125 19.762 29.396 19.581 29.572C19.4648 29.6985 19.3299 29.8064 19.181 29.892C19.144 29.892 19.033 30.024 18.933 30.186C18.8453 30.3357 18.7271 30.4651 18.586 30.566C18.4578 30.6468 18.3456 30.7506 18.255 30.872C18.1663 30.9914 18.0657 31.1016 17.955 31.201C17.8469 31.302 17.7524 31.4166 17.674 31.542C17.5831 31.6797 17.4659 31.798 17.329 31.89C17.228 31.9451 17.1453 32.0285 17.091 32.13C16.7814 32.5413 16.4201 32.911 16.016 33.23C15.983 33.23 15.916 33.33 15.867 33.445C15.7773 33.6212 15.6632 33.7838 15.528 33.928C15.3698 34.101 15.221 34.2822 15.082 34.471C15.0076 34.5873 14.9144 34.6904 14.806 34.776C14.6917 34.8773 14.595 34.9969 14.52 35.13C14.4245 35.2875 14.3051 35.4292 14.166 35.55C14.0455 35.6477 13.9438 35.7667 13.866 35.901C13.7832 36.0425 13.6766 36.1686 13.551 36.274C13.4477 36.3554 13.3682 36.4632 13.321 36.586C13.2655 36.7233 13.182 36.8476 13.076 36.951C12.9072 37.1322 12.7533 37.3269 12.616 37.533C12.5035 37.7075 12.3771 37.8727 12.238 38.027C12.149 38.1218 12.0751 38.2297 12.019 38.347C11.8115 38.699 11.5598 39.023 11.27 39.311C11.1576 39.453 10.9959 39.5476 10.817 39.576C10.535 39.624 10.341 39.829 10.07 40.369C9.91036 40.7163 9.67043 41.0207 9.37 41.257L9.018 41.589L8.693 41.514C8.53711 41.4801 8.38476 41.4315 8.238 41.369C7.98153 41.2928 7.71831 41.2416 7.452 41.216C7.01249 41.1532 6.57804 41.0589 6.152 40.934C5.41617 40.7168 4.66256 40.5653 3.9 40.481C2.913 40.35 2.017 39.903 2.017 39.542C2.017 39.342 1.826 39.32 0.979 39.442L0.5 39.505V39.994C0.5 40.468 0.5 40.482 0.638 40.482C0.780896 40.5136 0.91423 40.5787 1.027 40.672L1.372 40.933C1.62786 41.0302 1.89238 41.1029 2.162 41.15C2.48173 41.2003 2.79174 41.2998 3.081 41.445C3.39221 41.6021 3.73284 41.6924 4.081 41.71C4.6418 41.7457 5.19238 41.8769 5.709 42.098C6.03714 42.2286 6.38171 42.3134 6.733 42.35C7.833 42.517 8.37 42.75 8.633 43.194C8.787 43.447 8.778 43.494 8.521 43.775C8.40208 43.9031 8.30481 44.0497 8.233 44.209C8.14181 44.4112 8.0313 44.6041 7.903 44.785C7.76575 44.9806 7.65418 45.193 7.571 45.417C7.50682 45.6867 7.38122 45.9379 7.204 46.151C7.10162 46.2927 7.02138 46.4492 6.966 46.615C6.89191 46.8163 6.791 47.0067 6.666 47.181C6.45433 47.4352 6.30807 47.7373 6.24 48.061C6.1781 48.2763 6.08869 48.4826 5.974 48.675C5.76233 49.0517 5.61848 49.4626 5.549 49.889L5.52 50.079H22.15V49.896C22.1585 49.7674 22.1965 49.6425 22.261 49.531C22.3624 49.3223 22.4425 49.1038 22.5 48.879C22.5497 48.5666 22.6886 48.2753 22.9 48.04C23.0198 47.8489 23.113 47.6423 23.177 47.426C23.2473 47.1932 23.3536 46.9729 23.492 46.773C23.6243 46.5884 23.7213 46.3809 23.778 46.161C23.8682 45.8749 23.9889 45.5993 24.138 45.339C24.2655 45.1288 24.3745 44.908 24.464 44.679C24.5208 44.5194 24.6131 44.3747 24.734 44.256C24.8985 44.0814 25.017 43.8687 25.079 43.637C25.266 43.113 25.279 43.078 25.424 42.911C25.5287 42.7512 25.6165 42.5809 25.686 42.403C25.767 42.2004 25.8809 42.0126 26.023 41.847C26.1486 41.7117 26.2516 41.557 26.328 41.389C26.4028 41.2232 26.4957 41.0663 26.605 40.921C26.745 40.7216 26.8668 40.5101 26.969 40.289C27.04 40.1099 27.1415 39.9444 27.269 39.8C27.3914 39.6752 27.4907 39.5296 27.562 39.37C27.6767 39.1509 27.8105 38.9425 27.962 38.747C28.0855 38.5935 28.1899 38.4256 28.273 38.247C28.332 38.1083 28.4105 37.9787 28.506 37.862C28.6179 37.7284 28.7166 37.5844 28.801 37.432C28.9208 37.2322 29.0638 37.0473 29.227 36.881C29.3733 36.7352 29.4946 36.5662 29.586 36.381C29.6579 36.2231 29.7545 36.0776 29.872 35.95C29.9489 35.8852 30.0081 35.8019 30.044 35.708C30.1069 35.5741 30.1933 35.4525 30.299 35.349C30.4896 35.1247 30.6653 34.8882 30.825 34.641C30.9113 34.4838 31.0213 34.3408 31.151 34.217C31.2583 34.1222 31.3465 34.0078 31.411 33.88C31.4964 33.7277 31.6054 33.59 31.734 33.472C31.828 33.3947 31.9029 33.2969 31.953 33.186C32.0315 33.042 32.1403 32.9168 32.272 32.819C32.4115 32.7111 32.5264 32.5748 32.609 32.419C32.6896 32.2631 32.7861 32.116 32.897 31.98C33.377 31.42 33.377 31.18 32.897 31.088C32.7047 31.0344 32.5178 30.9628 32.339 30.874C32.0134 30.7357 31.6723 30.6373 31.323 30.581C30.9046 30.5559 30.5014 30.4154 30.158 30.175C29.6653 29.9642 29.1376 29.8469 28.602 29.829C28.3238 29.7936 28.0496 29.732 27.783 29.645C27.3666 29.5228 26.9431 29.4259 26.515 29.355C25.33 29.145 25.315 29.14 25.066 28.971C24.7602 28.8179 24.4298 28.7197 24.09 28.681C23.7006 28.614 23.3192 28.5067 22.952 28.361C22.5305 28.1791 22.0837 28.0627 21.627 28.016C21.573 28.016 21.427 28.042 21.306 28.066" fill="#962932"/>
<path d="M21.329 28.076C21.1299 28.1327 20.9523 28.2477 20.819 28.406C20.661 28.564 20.392 28.819 20.219 28.972C20.046 29.125 19.762 29.396 19.581 29.572C19.4648 29.6985 19.3299 29.8064 19.181 29.892C19.144 29.892 19.033 30.024 18.933 30.186C18.8453 30.3357 18.7271 30.4651 18.586 30.566C18.4578 30.6468 18.3456 30.7506 18.255 30.872C18.1663 30.9914 18.0657 31.1016 17.955 31.201C17.8469 31.302 17.7524 31.4166 17.674 31.542C17.5831 31.6797 17.4659 31.798 17.329 31.89C17.228 31.9451 17.1453 32.0285 17.091 32.13C16.7814 32.5413 16.4201 32.911 16.016 33.23C15.983 33.23 15.916 33.33 15.867 33.445C15.7773 33.6212 15.6632 33.7838 15.528 33.928C15.3698 34.101 15.221 34.2822 15.082 34.471C15.0076 34.5873 14.9144 34.6904 14.806 34.776C14.6917 34.8773 14.595 34.9969 14.52 35.13C14.4245 35.2875 14.3051 35.4292 14.166 35.55C14.0455 35.6477 13.9438 35.7667 13.866 35.901C13.7832 36.0425 13.6766 36.1686 13.551 36.274C13.4477 36.3554 13.3682 36.4632 13.321 36.586C13.2655 36.7233 13.182 36.8476 13.076 36.951C12.9072 37.1322 12.7533 37.3269 12.616 37.533C12.5035 37.7075 12.3771 37.8727 12.238 38.027C12.149 38.1218 12.0751 38.2297 12.019 38.347C11.8115 38.699 11.5598 39.023 11.27 39.311C11.1576 39.453 10.9959 39.5476 10.817 39.576C10.535 39.624 10.341 39.829 10.07 40.369C9.91036 40.7163 9.67043 41.0207 9.37 41.257L9.018 41.589L8.693 41.514C8.53711 41.4801 8.38476 41.4315 8.238 41.369C7.98153 41.2928 7.71831 41.2416 7.452 41.216C7.01249 41.1532 6.57804 41.0589 6.152 40.934C5.41617 40.7168 4.66256 40.5653 3.9 40.481C2.913 40.35 2.017 39.903 2.017 39.542C2.017 39.342 1.826 39.32 0.979 39.442L0.5 39.505V39.994C0.5 40.468 0.5 40.482 0.638 40.482C0.780896 40.5136 0.91423 40.5787 1.027 40.672L1.372 40.933C1.62786 41.0302 1.89238 41.1029 2.162 41.15C2.48173 41.2003 2.79174 41.2998 3.081 41.445C3.39221 41.6021 3.73284 41.6924 4.081 41.71C4.6418 41.7457 5.19238 41.8769 5.709 42.098C6.03714 42.2286 6.38171 42.3134 6.733 42.35C7.833 42.517 8.37 42.75 8.633 43.194C8.787 43.447 8.778 43.494 8.521 43.775C8.40208 43.9031 8.30481 44.0497 8.233 44.209C8.14181 44.4112 8.0313 44.6041 7.903 44.785C7.76575 44.9806 7.65418 45.193 7.571 45.417C7.50682 45.6867 7.38122 45.9379 7.204 46.151C7.10162 46.2927 7.02138 46.4492 6.966 46.615C6.89191 46.8163 6.791 47.0067 6.666 47.181C6.45433 47.4352 6.30807 47.7373 6.24 48.061C6.1781 48.2763 6.08869 48.4826 5.974 48.675C5.76233 49.0517 5.61848 49.4626 5.549 49.889L5.52 50.079H22.15V49.896C22.1585 49.7674 22.1965 49.6425 22.261 49.531C22.3624 49.3223 22.4425 49.1038 22.5 48.879C22.5497 48.5666 22.6886 48.2753 22.9 48.04C23.0198 47.8489 23.113 47.6423 23.177 47.426C23.2473 47.1932 23.3536 46.9729 23.492 46.773C23.6243 46.5884 23.7213 46.3809 23.778 46.161C23.8682 45.8749 23.9889 45.5993 24.138 45.339C24.2655 45.1288 24.3745 44.908 24.464 44.679C24.5208 44.5194 24.6131 44.3747 24.734 44.256C24.8985 44.0814 25.017 43.8687 25.079 43.637C25.266 43.113 25.279 43.078 25.424 42.911C25.5287 42.7512 25.6165 42.5809 25.686 42.403C25.767 42.2004 25.8809 42.0126 26.023 41.847C26.1486 41.7117 26.2516 41.557 26.328 41.389C26.4028 41.2232 26.4957 41.0663 26.605 40.921C26.745 40.7216 26.8668 40.5101 26.969 40.289C27.04 40.1099 27.1415 39.9444 27.269 39.8C27.3914 39.6752 27.4907 39.5296 27.562 39.37C27.6767 39.1509 27.8105 38.9425 27.962 38.747C28.0855 38.5935 28.1899 38.4256 28.273 38.247C28.332 38.1083 28.4105 37.9787 28.506 37.862C28.6179 37.7284 28.7166 37.5844 28.801 37.432C28.9208 37.2322 29.0638 37.0473 29.227 36.881C29.3733 36.7352 29.4946 36.5662 29.586 36.381C29.6579 36.2231 29.7545 36.0776 29.872 35.95C29.9489 35.8852 30.0081 35.8019 30.044 35.708C30.1069 35.5741 30.1933 35.4525 30.299 35.349C30.4896 35.1247 30.6653 34.8882 30.825 34.641C30.9113 34.4838 31.0213 34.3408 31.151 34.217C31.2583 34.1222 31.3465 34.0078 31.411 33.88C31.4964 33.7277 31.6054 33.59 31.734 33.472C31.828 33.3947 31.9029 33.2969 31.953 33.186C32.0315 33.042 32.1403 32.9168 32.272 32.819C32.4115 32.7111 32.5264 32.5748 32.609 32.419C32.6896 32.2631 32.7861 32.116 32.897 31.98C33.377 31.42 33.377 31.18 32.897 31.088C32.7047 31.0344 32.5178 30.9628 32.339 30.874C32.0134 30.7357 31.6723 30.6373 31.323 30.581C30.9046 30.5559 30.5014 30.4154 30.158 30.175C29.6653 29.9642 29.1376 29.8469 28.602 29.829C28.3238 29.7936 28.0496 29.732 27.783 29.645C27.3666 29.5228 26.9431 29.4259 26.515 29.355C25.33 29.145 25.315 29.14 25.066 28.971C24.7602 28.8179 24.4298 28.7197 24.09 28.681C23.7006 28.614 23.3192 28.5067 22.952 28.361C22.5305 28.1791 22.0837 28.0627 21.627 28.016C21.573 28.016 21.427 28.042 21.306 28.066M66.589 3.77C66.3411 3.87976 66.0878 3.97688 65.83 4.061C65.508 4.169 65.096 4.309 64.915 4.373C64.6106 4.46438 64.3001 4.53455 63.986 4.583C63.5605 4.61395 63.1532 4.76824 62.814 5.027C62.5853 5.14653 62.3376 5.22569 62.082 5.261C61.7395 5.32689 61.4061 5.43365 61.089 5.579C60.7619 5.72999 60.4162 5.83692 60.061 5.897C59.6653 5.92404 59.2824 6.04801 58.946 6.258C58.7065 6.37671 58.4532 6.46538 58.192 6.522C57.8963 6.58051 57.6128 6.68943 57.354 6.844C57.0752 7.00735 56.771 7.12294 56.454 7.186C56.1634 7.25225 55.8803 7.34774 55.609 7.471C55.3591 7.58696 55.0977 7.67613 54.829 7.737C54.085 7.922 53.983 7.963 53.81 8.149C53.6204 8.29585 53.4004 8.39836 53.166 8.449C52.9028 8.52666 52.6492 8.63366 52.41 8.768C52.2089 8.88424 51.992 8.97049 51.766 9.024C51.3781 9.07115 51.0053 9.20292 50.674 9.41C50.4845 9.53775 50.2782 9.6387 50.061 9.71C49.8302 9.78732 49.6104 9.89421 49.407 10.028C49.1955 10.1608 48.9658 10.2618 48.725 10.328C48.4786 10.3981 48.2397 10.4926 48.012 10.61C47.7365 10.7773 47.4351 10.8972 47.12 10.965C46.93 11.0185 46.7514 11.1063 46.593 11.224C46.3507 11.4306 46.066 11.5814 45.759 11.666C45.5877 11.7253 45.4268 11.811 45.282 11.92C45.0908 12.0517 44.8803 12.153 44.658 12.22C44.3915 12.3064 44.1361 12.4239 43.897 12.57C43.7081 12.6908 43.507 12.7914 43.297 12.87C43.1086 12.9423 42.9312 13.0406 42.77 13.162C42.5773 13.3026 42.3744 13.4286 42.163 13.539C41.801 13.72 41.805 13.728 42.382 13.948C42.6001 14.0279 42.8066 14.1365 42.996 14.271C43.196 14.445 43.427 14.513 44.274 14.649C44.5944 14.7009 44.9101 14.7785 45.218 14.881C45.6381 15.0075 46.0665 15.1047 46.5 15.172C46.9512 15.2223 47.3922 15.3407 47.808 15.523C48.1918 15.726 48.6179 15.836 49.052 15.844C49.2733 15.8839 49.5011 15.8678 49.7146 15.7971C49.928 15.7263 50.1204 15.6032 50.274 15.439C50.3876 15.3181 50.5204 15.2167 50.667 15.139C50.8069 15.0667 50.9372 14.9774 51.055 14.873C51.1871 14.7539 51.3274 14.6443 51.475 14.545C51.8858 14.2591 52.2807 13.9509 52.658 13.622C52.8241 13.4819 53.0048 13.3602 53.197 13.259C53.3227 13.2058 53.4355 13.1263 53.528 13.026C53.6302 12.9152 53.7523 12.8246 53.888 12.759C54.0834 12.645 54.2664 12.5109 54.434 12.359C54.5895 12.2192 54.7635 12.1015 54.951 12.009C55.0998 11.9425 55.2377 11.8538 55.36 11.746C55.4627 11.6493 55.5789 11.5682 55.705 11.505C55.8851 11.401 56.0529 11.2769 56.205 11.135C56.3926 10.9701 56.5986 10.8275 56.819 10.71C56.9861 10.6299 57.1413 10.5269 57.28 10.404C57.4013 10.2944 57.5398 10.2056 57.69 10.141C57.8991 10.0397 58.0971 9.91703 58.281 9.775C58.4509 9.64159 58.6311 9.52188 58.82 9.417C58.9365 9.362 59.0391 9.28132 59.12 9.181C59.2411 9.05776 59.3861 8.96045 59.546 8.895C59.7266 8.81293 59.8981 8.7124 60.058 8.595C60.2534 8.42404 60.4886 8.30474 60.742 8.248C60.9182 8.19965 61.072 8.09145 61.177 7.942C61.2859 7.8061 61.4222 7.69468 61.577 7.615C61.7539 7.5291 61.9214 7.42522 62.077 7.305C62.2722 7.16296 62.4841 7.04541 62.708 6.955C62.8655 6.90178 63.0136 6.82417 63.147 6.725C63.3784 6.5359 63.6396 6.38654 63.92 6.283C64.0615 6.21813 64.1902 6.12837 64.3 6.018C64.4829 5.86202 64.6891 5.7355 64.911 5.643C65.0887 5.57641 65.2568 5.48663 65.411 5.376C65.5482 5.27647 65.7005 5.1995 65.862 5.148C66.1638 5.08593 66.437 4.92684 66.64 4.695C66.7712 4.56073 66.9312 4.45813 67.108 4.395C67.508 4.255 67.639 4.021 67.351 3.971C67.2101 3.93995 67.0751 3.88661 66.951 3.813C66.762 3.696 66.736 3.694 66.575 3.778L66.589 3.77Z" stroke="#962932"/>
</g>
<defs>
<clipPath id="clip0">
<rect width="141.433" height="50.579" fill="white"/>
</clipPath>
</defs>
</svg>
