<svg width="65" height="57" viewBox="0 0 65 57" fill="none" xmlns="http://www.w3.org/2000/svg">
<g clip-path="url(#clip0)">
<path d="M48.366 56H16.566L0.666016 28.3L16.566 0.599976H48.366L64.266 28.3L48.366 56Z" fill="white"/>
<path d="M16.766 1L1.16602 28.2L16.766 55.4H48.066L63.666 28.2L48.066 1H16.766ZM16.166 0H48.566L64.766 28.2L48.566 56.4H16.166L-0.0339966 28.2L16.166 0Z" fill="#DFE9EB"/>
<path d="M41.5 28.5C41.5 33.9 37.2 38.2 31.8 38.2C26.4 38.2 22.1 33.9 22.1 28.5C22.1 23.1 26.4 18.8 31.8 18.8C37.2 18.8 41.5 23.1 41.5 28.5ZM39.6 28.5C39.6 24.2 36.1 20.7 31.8 20.7C27.5 20.7 24 24.2 24 28.5C24 32.8 27.5 36.3 31.8 36.3C36.1 36.3 39.6 32.8 39.6 28.5ZM30.9 29.8C30.8 29.7 30.7 29.6 30.7 29.4V23C30.7 22.7 30.9 22.5 31.2 22.5H32.4C32.7 22.5 32.9 22.7 32.9 23V28.5L35.5 30.4C35.7 30.6 35.8 30.8 35.6 31.1L34.9 32.1C34.7 32.3 34.5 32.4 34.2 32.2L30.9 29.8Z" fill="#20366C"/>
</g>
<defs>
<clipPath id="clip0">
<rect width="64.8" height="56.5" fill="white"/>
</clipPath>
</defs>
</svg>
