<svg width="65" height="57" viewBox="0 0 65 57" fill="none" xmlns="http://www.w3.org/2000/svg">
<g clip-path="url(#clip0)">
<path d="M48.334 56H16.534L0.634001 28.3L16.534 0.599976H48.334L64.234 28.3L48.334 56Z" fill="white"/>
<path d="M16.834 1L1.234 28.2L16.834 55.4H48.034L63.634 28.2L48.034 1H16.834ZM16.234 0H48.634L64.834 28.2L48.634 56.4H16.234L0.0340004 28.2L16.234 0Z" fill="#DFE9EB"/>
<path d="M41.8 22.9V34.1C41.8 35.1 41 36 39.9 36H23.7C22.7 36 21.8 35.2 21.8 34.1V22.9C21.8 21.9 22.6 21 23.7 21H39.9C40.9 21 41.8 21.8 41.8 22.9ZM23.7 22.9V24.5C24.6 25.2 26 26.3 29 28.7C29.7 29.2 31 30.5 31.9 30.4C32.8 30.4 34.1 29.2 34.8 28.7C37.8 26.4 39.2 25.3 40.1 24.5V22.9H23.7ZM39.9 34.1V26.9C39 27.6 37.7 28.6 35.8 30.1C34.9 30.8 33.4 32.3 31.8 32.2C30.1 32.2 28.6 30.7 27.8 30.1C25.9 28.6 24.6 27.6 23.7 26.9V34.1H39.9Z" fill="#20366C"/>
</g>
<defs>
<clipPath id="clip0">
<rect width="64.8" height="56.5" fill="white"/>
</clipPath>
</defs>
</svg>
