<svg width="65" height="57" viewBox="0 0 65 57" fill="none" xmlns="http://www.w3.org/2000/svg">
<path d="M48.3 56H16.5L0.599991 28.2L16.5 0.5H48.3L64.2 28.2L48.3 56Z" fill="#962932"/>
<path d="M16.8 1L1.2 28.2L16.8 55.4H48L63.6 28.2L48 1H16.8ZM16.2 0H48.6L64.8 28.2L48.6 56.5H16.2L0 28.2L16.2 0Z" fill="#962932"/>
<path d="M39.7 26C39.7 28.8 38.8 29.6 33.8 37.6C33.1 38.8 31.4 38.8 30.6 37.6C25.6 29.6 24.7 28.8 24.7 26C24.7 21.9 28.1 18.5 32.2 18.5C36.3 18.5 39.7 21.9 39.7 26ZM37.8 26C37.8 22.9 35.3 20.4 32.2 20.4C29.1 20.4 26.6 22.9 26.6 26C26.6 28.1 27.2 28.6 32.2 36.6C37.2 28.6 37.8 28.1 37.8 26ZM32.2 22.9C33.9 22.9 35.3 24.3 35.3 26C35.3 27.7 33.9 29.1 32.2 29.1C30.5 29.1 29.1 27.7 29.1 26C29.1 24.3 30.4 22.9 32.2 22.9Z" fill="white"/>
</svg>
